<svg width="180" height="119" viewBox="0 0 180 119" fill="none" xmlns="http://www.w3.org/2000/svg">
<path d="M85.3788 75.5075C81.8501 77.8437 90.5776 78.0188 88.9788 82.3563C89.1541 86.8045 83.9163 87.643 79.3068 87.7076C75.0632 90.3481 81.6239 89.2075 83.8532 91.4076C88.5479 90.7857 90.1278 96.2092 82.8788 96.4076C83.3602 99.1797 90.7942 99.6347 86.8044 103.708C81.4657 101.985 78.6712 106.548 81.6788 109.582C84.0892 111.614 80.5603 116.922 78.0788 114.608C76.62 109.856 74.3418 114.706 72.2044 115.908C70.0319 118.903 69.8096 119.565 67.0788 117.108C62.0344 114.635 59.3981 118.683 63.3788 113.633C62.9417 110.037 57.6427 111.303 56.3044 108.608C52.8121 109.732 51.0155 112.104 48.6788 112.208C47.0128 109.649 41.9893 110.109 42.5788 111.008C40.3697 109.737 37.6404 110.495 35.2788 110.033C34.3014 106.834 32.2143 111.727 30.6044 107.308C28.5165 105.654 26.0825 104.346 25.4788 101.208C23.2657 105.566 20.1361 102.327 20.5788 97.6076C17.0077 96.0439 17.1951 94.6014 19.3788 91.7332C20.8343 84.614 16.2604 84.1019 18.1788 78.6844C19.7505 75.7792 17.6141 73.2761 14.4788 71.9076C10.5106 68.6227 9.80133 71.3707 5.13 71.9076C-1.16334 72.4773 -0.16 68.5614 2.17879 66.0332C6.22953 67.7614 2.64569 65.4692 5.87879 63.3075C6.07348 64.6452 11.4319 60.9821 13.0532 59.7076C14.421 57.0087 15.5931 54.1141 17.9532 52.4076C20.2221 50.082 12.3822 48.7378 17.9532 49.8075C17.7758 48.0025 17.0116 44.6956 17.9532 42.5075C15.6087 38.3331 19.9571 43.3128 20.5788 38.8075C25.114 39.6508 22.9729 32.29 27.6532 32.7076C30.4174 30.3575 27.3771 27.6024 29.1788 27.9076C29.9429 26.2337 33.9582 25.3582 32.7788 24.2076C35.438 20.6243 35.5993 22.1218 36.4788 16.9076C40.462 16.9505 37.5516 13.9828 41.3788 12.0075C43.0093 7.37805 44.2115 10.2873 43.7788 3.50756C46.552 1.46466 46.8164 -0.239218 47.4788 2.20755C51.0796 -0.161808 49.1644 2.4057 55.202 2.20755C58.2172 1.28172 64.9362 8.66077 65.8788 2.53317C71.3398 -0.856453 70.6187 9.80628 75.5788 4.83317C78.7955 3.07466 79.5997 -1.09634 86.5788 0.907557C84.7918 3.27312 89.7388 3.73611 88.7532 5.80755C93.6989 6.75087 92.4809 6.4983 98.8788 7.10755C101.875 9.06134 99.322 11.7682 104.879 9.60755C106.357 10.9166 109.115 6.84774 110.753 4.70756C113.901 1.65738 118.502 6.83319 121.753 3.50756C127.541 3.05259 132.177 3.7489 130.579 10.6795C128.269 15.8638 132.483 11.0688 133.953 9.60755C137.295 7.67706 131.918 3.9077 134.279 2.20755C136.26 -1.61066 139.427 6.38254 142.879 5.68194C144.04 10.7299 144.895 6.69157 146.479 4.70756C147.752 2.07457 152.006 6.34936 152.579 8.40756C157.411 7.43255 156.091 7.49646 158.579 5.80755C161.335 3.92528 162.926 6.35603 164.779 2.53317C167.158 0.575127 173.841 0.89389 172.179 3.18194C177.65 3.24334 177.476 10.0927 170.907 7.10755C171.403 7.06015 167.661 11.185 172.179 12.0075C169.763 14.0915 167.696 16.5245 168.479 21.8076C165.347 23.6759 171.724 25.7139 172.179 27.9076C172.101 32.4192 177.454 31.4989 175.779 37.6076C171.073 39.6357 183.946 43.0063 174.381 42.5075C172.704 43.4576 177.047 47.1758 176.979 49.8075C181.483 50.9646 177.739 54.2513 175.779 57.2076C178.8 60.4108 177.098 60.2866 173.379 62.1076C171.085 64.6476 172.565 58.5599 168.479 58.5075C166.592 56.7577 162.869 62.4609 166.079 60.9076C168.664 62.2266 170.34 60.5049 172.179 64.2819C167.603 64.2716 167.598 67.8893 167.504 69.4076C172.924 72.4346 171.947 72.4032 167.279 74.3075C166.285 80.5792 160.761 74.0787 158.03 74.3075C157.57 70.2997 157.36 77.6399 156.279 74.3075C156.672 69.0803 151.437 71.4018 152.579 68.2076C146.687 71.1552 148.695 65.5722 145.763 66.3466C145.096 63.6881 140.211 67.5499 139.179 67.0075C134.894 67.6182 133.983 69.4663 135.479 73.1076C132.042 76.8753 133.24 72.2149 126.907 73.1076C128.841 80.2105 124.017 78.8776 123.053 80.4076C123.46 75.7891 122.511 69.2112 125.679 70.9332C127.391 65.989 125.594 66.3819 121.33 67.0075C117.442 67.6741 117.968 67.8431 113.479 69.4076C113.519 72.9368 110.664 78.3021 108.579 73.3332C103.996 70.0439 99.946 73.4445 95.1068 73.1076C91.4697 71.4062 87.0654 71.9808 85.3788 75.2819V75.5075Z" fill="#FFB900" stroke="#4A5153" stroke-width="0.75"/>
</svg>
