<?xml version="1.0" encoding="UTF-8" standalone="no"?>
<!-- Created with Inkscape (http://www.inkscape.org/) -->

<svg
   version="1.1"
   id="svg1"
   width="845.61322"
   height="845.84521"
   viewBox="0 0 845.61322 845.84521"
   sodipodi:docname="জাতীয় নাগরিক পার্টি.svg"
   inkscape:version="1.3 (0e150ed6c4, 2023-07-21)"
   xmlns:inkscape="http://www.inkscape.org/namespaces/inkscape"
   xmlns:sodipodi="http://sodipodi.sourceforge.net/DTD/sodipodi-0.dtd"
   xmlns="http://www.w3.org/2000/svg"
   xmlns:svg="http://www.w3.org/2000/svg">
  <defs
     id="defs1" />
  <sodipodi:namedview
     id="namedview1"
     pagecolor="#ffffff"
     bordercolor="#999999"
     borderopacity="1"
     inkscape:showpageshadow="2"
     inkscape:pageopacity="0"
     inkscape:pagecheckerboard="0"
     inkscape:deskcolor="#d1d1d1"
     inkscape:zoom="0.84029228"
     inkscape:cx="613.47702"
     inkscape:cy="381.41491"
     inkscape:window-width="1920"
     inkscape:window-height="1009"
     inkscape:window-x="-8"
     inkscape:window-y="-8"
     inkscape:window-maximized="1"
     inkscape:current-layer="g1" />
  <g
     inkscape:groupmode="layer"
     inkscape:label="Image"
     id="g1"
     transform="translate(518.61658,-98.106875)">
    <ellipse
       style="fill:#026b32;fill-opacity:1;stroke-width:24.5314"
       id="path10"
       cx="-96.395027"
       cy="521.19751"
       rx="414.14163"
       ry="415.3317" />
    <path
       style="fill:#dd2527;fill-opacity:1;stroke-width:17.7449"
       d="m -496.2559,612.88199 803.29192,-1.19006 -26.18136,79.73416 -65.45342,102.34534 -29.75155,24.9913 -573.60994,-1.19006 -47.60248,-57.12298 -42.84224,-76.16398 z"
       id="path11" />
    <path
       style="fill:#ffffff"
       d="m -125.99006,942.97487 c -74.12199,-4.91974 -146.94274,-30.4645 -209.86189,-73.61737 -23.19147,-15.90579 -38.97008,-29.16468 -60.48406,-50.8252 -56.97499,-57.3631 -96.41967,-129.94247 -113.04166,-208 -2.34923,-11.03206 -3.57009,-18.15641 -6.57528,-38.37005 -2.33322,-15.69384 -3.35003,-50.2049 -2.16902,-73.61793 1.16947,-23.18445 1.58603,-26.91818 5.74704,-51.51202 4.75668,-28.1146 15.67533,-66.44335 24.35625,-85.5 0.50109,-1.1 2.34716,-5.375 4.10239,-9.5 6.36327,-14.95445 18.5963,-38.59125 26.39464,-51 20.10033,-31.98376 37.09177,-53.50609 61.98937,-78.5193 34.4119,-34.57171 66.19131,-57.72395 109.04222,-79.44051 18.69715,-9.4756 22.21999,-11.02013 45,-19.72961 14.99715,-5.73385 38.09546,-12.29827 57.5,-16.34121 20.82288,-4.33844 23.78166,-4.79356 49,-7.537239 14.74288,-1.603978 64.888608,-1.85683 75.499998,-0.380697 3.3,0.459058 12.075,1.566876 19.5,2.461816 18.93503,2.28225 46.4317599,7.89455 61.5,12.55264 9.12452,2.82068 27.7379,9.08292 32.5,10.9342 3.025,1.17598 7.075,2.72519 9,3.44268 6.2709,2.33731 16.25026,6.87607 29.5,13.41704 68.991642,34.05891 128.028872,87.52123 170.213502,154.14019 4.35341,6.875 8.60779,13.85 9.45419,15.5 0.84639,1.65 4.89574,9.525 8.99854,17.5 9.44489,18.35891 18.91142,40.6471 24.20977,57 5.02571,15.51139 10.43404,35.40962 12.63868,46.5 4.91618,24.73073 6.69108,37.6445 7.97166,58 3.6055,57.31128 -2.48761,108.48342 -19.05131,160 -18.69499,58.14531 -49.09484,110.42522 -90.56636,155.75086 -87.78107,95.93891 -211.5941821,145.37166 -342.36867,136.69171 z m 65.499998,-16.98797 c 7.15,-0.51845 15.7,-1.39612 19,-1.95038 3.3,-0.55427 11.61121,-1.94439 18.46936,-3.08916 48.02669,-8.0167 97.22078,-27.13445 145.030642,-56.36165 8.66088,-5.29458 31.32614,-21.92091 31.76755,-23.30341 0.31857,-0.99773 -50.07136,-1.25 -249.684222,-1.25 -149.856048,0 -250.083328,0.36528 -250.083328,0.91144 0,2.56711 37.9938,27.96545 56.5,37.76948 15.03138,7.96318 15.54552,8.21089 34.5,16.62211 23.87315,10.59392 61.03767,21.59713 86.86299,25.71731 6.95035,1.10886 14.88701,2.44029 17.63701,2.95874 4.26349,0.80377 18.47892,1.97564 41.5,3.42111 7.38531,0.46372 32.486658,-0.28445 48.499998,-1.44559 z M 197.53704,801.7976 c 12.86142,-13.24309 32.4729,-36.52574 32.4729,-38.55167 0,-0.49701 0.88003,-1.70007 1.95562,-2.67346 1.07559,-0.9734 4.51814,-5.65564 7.65011,-10.40499 3.13197,-4.74935 6.84808,-10.3731 8.25802,-12.49722 3.07881,-4.63832 2.79946,-4.15796 11.98653,-20.61125 6.26549,-11.22098 11.08826,-20.94301 17.62358,-35.52671 0.73941,-1.65 2.79016,-6.825 4.55723,-11.5 1.76707,-4.675 3.77816,-9.85 4.46908,-11.5 2.37515,-5.67212 9.49983,-28.09434 9.49983,-29.8971 0,-0.75001 -782.46591,-0.80366 -783.21587,-0.0537 -0.53233,0.53233 1.56176,9.06908 3.17688,12.9508 0.45769,1.1 1.80455,5.15 2.99303,9 2.63619,8.53976 10.92151,29.64017 12.15287,30.95 0.4912,0.5225 0.89309,1.56447 0.89309,2.3155 0,1.12635 9.77045,21.50524 13.77646,28.7345 19.49821,35.1865 41.32792,65.13808 65.72354,90.17636 6.0748,6.23483 7.52869,7.22665 11,7.50402 2.2,0.17579 130.675,0.21401 285.499998,0.0849 l 281.500002,-0.2347 z m -360.5271,-41.24031 v -20.475 l -4.25,-1.86708 c -9.37948,-4.12054 -10.81439,-4.45607 -16.53591,-3.86668 -6.99923,0.72101 -9.26081,2.96526 -9.11441,9.04455 0.15387,6.38945 1.2117,9.10007 3.69131,9.45877 1.90485,0.27555 2.20901,-0.14441 2.20901,-3.05 0,-1.85325 0.54,-3.90955 1.2,-4.56955 1.55702,-1.55702 11.04298,-1.55702 12.6,0 1.65951,1.65951 1.61762,17.21606 -0.05,18.56994 -2.42063,1.96521 -14.3277,4.42187 -21.06728,4.34659 -5.22705,-0.0584 -7.50185,-0.56362 -9.75203,-2.16589 -5.36581,-3.82078 -5.39761,-3.96536 -7.47168,-33.96706 -0.88143,-12.75004 -0.0566,-13.85176 11.64053,-15.54927 4.62025,-0.6705 10.45022,-1.54165 12.95547,-1.9359 4.06349,-0.63946 5.41234,-0.2876 12.5,3.26072 13.10045,6.55851 12.44499,6.67394 12.44499,-2.19174 v -7.56739 h -24.37756 c -18.29906,0 -24.62829,-0.31168 -25.38314,-1.25 -1.17543,-1.46111 -1.11813,-16.66467 0.0697,-18.5 0.62248,-0.96179 9.09154,-1.25 36.73094,-1.25 h 35.92194 l 0.60165,2.39717 c 0.33091,1.31845 0.30715,5.93095 -0.0528,10.25 -0.35995,4.31906 -0.85787,24.39033 -1.1065,44.60283 l -0.45204,36.75 h -11.47609 -11.4761 z m 34.07962,19.07095 c -0.86221,-1.0389 -1.08911,-14.75762 -0.87244,-52.75 0.28769,-50.44591 0.33071,-51.41605 2.45457,-55.34594 2.68684,-4.97162 7.10291,-9.47228 11.48808,-11.70815 2.94871,-1.50347 58.789698,-15.79185 61.716728,-15.79185 0.78143,0 1.13344,3.71587 1.13344,11.96482 0,13.65709 0.21853,13.30625 -9,14.44892 -3.025,0.37496 -6.85,1.08279 -8.5,1.57295 -1.65,0.49016 -6.825,1.63383 -11.5,2.54149 -4.675,0.90765 -9.28139,2.06013 -10.23643,2.56105 -0.95504,0.50092 -3.09254,0.91077 -4.75,0.91077 -1.68024,0 -3.898458,0.88489 -5.013568,2 -1.94016,1.94016 -2.00345,3.41368 -2.11535,49.25 -0.0634,25.9875 -0.2199,47.7 -0.34769,48.25 -0.12778,0.55 -0.30087,1.5625 -0.38465,2.25 -0.23109,1.89654 -22.48906,1.75409 -24.07269,-0.15406 z m 93.920378,-14.12069 V 749.9828 l -2.72028,-1.03425 c -3.31443,-1.26014 -5.26758,0.77523 -5.30168,5.52488 -0.0121,1.68238 -0.85272,4.85887 -1.86808,7.05887 -4.10546,8.89532 -10.71138,11.5 -29.16597,11.5 -14.06848,0 -17.62498,-0.92711 -22.27412,-5.80645 -3.29331,-3.45638 -4.612688,-8.24478 -4.646008,-16.86176 -0.0371,-9.5924 -0.36059,-9.33179 11.583128,-9.33179 h 10.39301 l 0.0318,5.25 c 0.0487,8.04585 3.39412,10.99361 8.76778,7.72569 3.78602,-2.30242 4.73952,-7.22401 3.90253,-20.14318 -0.74256,-11.46141 -2.02899,-12.80216 -13.70211,-14.28059 -8.15813,-1.03325 -8.43519,-1.18294 -12.08254,-6.52785 -2.61454,-3.83142 -4.03942,-4.99685 -6.39108,-5.22739 l -3.026378,-0.29668 v -10 -10 l 45.382238,-0.26028 c 39.73634,-0.2279 45.5213,-0.0704 46.4999999,1.26624 0.75419,1.03 0.90641,4.69259 0.46797,11.26028 -0.35738,5.35357 -0.69488,25.82126 -0.75,45.48376 l -0.10021,35.75 h -12.4999999 -12.5 z m -0.30778,-46.22525 -0.19222,-10.75 -12.83947,-0.12868 -12.83947,-0.12868 2.83947,1.87209 c 1.56171,1.02965 3.29944,1.87506 3.86163,1.87868 0.56218,0.004 2.65928,1.35605 4.6602,3.00538 3.19057,2.62993 6.27551,7.63611 8.16576,13.25121 0.38452,1.14225 1.6218,1.75 3.56271,1.75 h 2.97361 z m 35.35324989,9.21759 c 0.0274,-57.38532 -0.36904,-52.93936 5.52261001,-61.93115 1.4745,-2.25037 8.8747701,-7.75804 10.9319201,-8.13611 0.55,-0.10108 4.825,-1.16626 9.5,-2.36706 4.675,-1.20081 11.2,-2.84915 14.5,-3.66299 3.3,-0.81384 7.575,-1.88922 9.5,-2.38974 1.925,-0.50052 6.425,-1.57357 10,-2.38455 3.575,-0.81099 8.3,-1.94112 10.5,-2.5114 6.77972,-1.75743 6.5,-2.22256 6.5,10.80842 0,12.76546 -0.11544,13.04448 -5.67389,13.71372 -1.19564,0.14396 -5.02064,0.94054 -8.5,1.77017 -3.47936,0.82963 -7.67611,1.76682 -9.32611,2.08263 -4.33405,0.82955 -7.40627,1.47427 -12.5,2.62322 -2.475,0.55826 -6.23156,1.39066 -8.34792,1.84977 -7.60997,1.65086 -7.19113,-1.55093 -6.82264,52.15609 0.24926,36.32855 0.0369,48.3675 -0.87245,49.46321 -0.92567,1.11537 -3.92915,1.44818 -13.06926,1.44818 H 0.03029789 Z M 81.009938,765.56613 c 0,-10.53792 -0.35033,-15.53383 -1.08927,-15.53383 -0.5991,0 -7.36379,3.6 -15.03264,8 -7.66885,4.4 -14.27674,8 -14.68419,8 -0.40745,0 -4.20402,-3.4875 -8.43682,-7.75 -8.57375,-8.6339 -8.64275,-9.1772 -1.61445,-12.71219 l 4.35737,-2.1916 0.28176,-10.46895 c 0.27333,-10.15577 0.2038,-10.5422 -2.3243,-12.91723 -1.92267,-1.80624 -4.09442,-2.58092 -8.28176,-2.95415 l -5.6757,-0.50588 -0.28849,-13 c -0.15867,-7.15 -0.0661,-13.9 0.2058,-15 0.46947,-1.89961 1.23689,-1.98959 15.28849,-1.79254 8.13681,0.11411 16.54343,0.4668 18.68138,0.78376 4.53327,0.67207 10.17843,4.4517 13.6593,9.14536 1.34944,1.8196 2.79102,3.32075 3.20352,3.33589 0.4125,0.0151 0.75,-2.89747 0.75,-6.47247 0,-3.575 0.3375,-6.54098 0.75,-6.59107 3.88487,-0.4717 19.13975,-0.68089 20.509842,-0.28124 1.65217,0.48192 1.74395,3.3695 1.5,47.19282 l -0.25984,46.67949 -10.750002,0.28383 -10.75,0.28383 z m -5.53393,-38.21904 c 1.94366,-0.92687 3.53393,-1.98484 3.53393,-2.35105 0,-0.92836 -9.90655,-9.96374 -10.92441,-9.96374 -0.45689,0 -1.35809,-0.63546 -2.00267,-1.41214 -1.84647,-2.22486 -10.48142,-3.97479 -12.98963,-2.63244 -3.09045,1.65396 -2.60554,2.40164 2.95782,4.56053 5.15757,2.00143 12.43676,8.26361 13.50012,11.61395 0.72943,2.29824 1.44619,2.32061 5.92484,0.18489 z m -313.269508,46.21727 -1.15368,-2.53206 h -20.95634 c -11.52599,0 -22.03682,-0.4108 -23.3574,-0.91288 -4.12106,-1.56682 -8.40749,-6.67419 -9.06798,-10.80467 -0.33761,-2.11129 -0.65243,-14.09626 -0.6996,-26.63328 -0.0645,-17.13243 0.23157,-23.17695 1.19175,-24.3339 1.02547,-1.23561 3.00542,-1.4567 10.03547,-1.12059 4.81688,0.2303 9.03645,0.69722 9.37683,1.03759 0.34037,0.34038 1.06886,9.31486 1.61885,19.9433 0.54999,10.62844 1.44266,19.86171 1.9837,20.51838 0.63464,0.7703 5.30352,1.30882 13.15777,1.51766 6.69574,0.17804 12.88741,0.67295 13.75926,1.0998 1.00009,0.48963 2.4137,0.1052 3.82983,-1.04152 2.17797,-1.76361 2.24366,-2.3515 2.2116,-19.79374 -0.0316,-17.18603 -0.12788,-18.05307 -2.19062,-19.72615 -1.45495,-1.18011 -3.90112,-1.75 -7.5116,-1.75 -5.96097,0 -7.4244,1.36063 -7.4244,6.90287 0,2.3231 0.36145,2.89566 1.542,2.44264 0.8481,-0.32545 1.47128,-1.32383 1.38485,-2.21862 -0.43952,-4.54987 0.007,-5.12689 3.96616,-5.12689 2.23092,0 4.06658,0.53368 4.29955,1.25 0.2236,0.6875 0.22831,5.6375 0.0105,11 l -0.39612,9.75 h -13.47077 -13.47077 l 0.3173,-16.25 c 0.31707,-16.23823 0.31947,-16.25304 3.3173,-20.44386 5.40683,-7.55851 8.73574,-8.71755 26.27107,-9.1469 18.78421,-0.45993 21.63308,-0.0147 23.13209,3.61521 0.78687,1.90546 1.04599,15.06203 0.86119,43.72555 l -0.26435,41 -10.57488,0.28206 c -10.4636,0.27908 -10.58702,0.25541 -11.72856,-2.25 z M 304.61797,592.5323 c 4.35866,-23.60216 5.83203,-41.74864 5.80533,-71.5 -0.0326,-36.30357 -2.26498,-57.13269 -9.80671,-91.5 -3.85141,-17.55075 -14.10373,-50.02222 -19.57545,-62 -0.50251,-1.1 -2.33657,-5.375 -4.07569,-9.5 -6.32754,-15.00818 -18.37935,-37.79984 -29.08301,-55 -5.67942,-9.1265 -22.25573,-32.22043 -27.21931,-37.92164 -2.28425,-2.62371 -6.17819,-7.27617 -8.65319,-10.3388 -7.51632,-9.3009 -37.17972,-38.27529 -49.5,-48.35025 -57.34469,-46.89383 -127.205292,-77.81498 -198.500002,-87.85849 -6.325,-0.89103 -14.56677,-2.05907 -18.31504,-2.59565 -11.11295,-1.59087 -51.905858,-2.22587 -68.184958,-1.06141 -61.03018,4.36558 -116.03692,20.31455 -168.5,48.85588 -18.60123,10.11957 -46.1276,28.49394 -60.5,40.38488 -12.61295,10.43527 -19.23133,16.50485 -32,29.34656 -33.75655,33.94962 -58.18522,68.26005 -78.70256,110.53892 -6.17111,12.71644 -17.79744,40.82008 -17.79744,43.02071 0,0.55353 -0.45426,1.78782 -1.00946,2.74286 -1.04128,1.79117 -7.14784,22.50939 -9.50147,32.23643 -3.62535,14.98274 -4.56925,19.65872 -6.86331,34 -4.08183,25.51751 -4.94985,40.41368 -4.28295,73.5 0.33258,16.5 1.02253,33.375 1.53322,37.5 1.56123,12.61058 4.04753,28.63722 4.71076,30.36559 0.58046,1.51265 30.92257,1.61782 399.770668,1.38565 L 303.50994,598.5323 Z m -492.60803,-30.91081 c -6.73959,-2.07009 -11.54808,-3.88053 -17.5,-6.58893 -4.45969,-2.02936 -13.14215,-4.00026 -17.62248,-4.00026 -5.1306,0 -7.25886,-1.39636 -3.61627,-2.37266 5.86687,-1.57245 15.31297,-0.18463 28.23875,4.14884 18.32593,6.14391 23.77252,5.86067 39.70401,-2.06476 10.46606,-5.20654 12.06257,-5.71142 18.06043,-5.71142 4.78547,0 8.98658,0.84347 15.40751,3.09342 25.03745,8.77334 25.29067,8.78355 44.075208,1.77637 12.55621,-4.68384 14.49242,-5.13122 22.25284,-5.14176 7.07387,-0.01 10.01002,0.53048 17.5,3.21906 16.84652,6.04716 17.6195,6.22116 25.5,5.74017 5.92699,-0.36175 9.5830199,-1.3441 17.4316699,-4.68378 14.6089201,-6.21623 21.7248901,-5.89825 36.8140201,1.64505 10.67112,5.33466 15.07148,6.502 23.57385,6.25374 4.25028,-0.1241 7.5706,0.1826 7.43448,0.68673 -0.13529,0.50105 -5.12124,1.03752 -11.0799,1.19216 -10.46097,0.27148 -11.22131,0.14239 -22.08713,-3.75 -14.97646,-5.36491 -20.86001,-5.46051 -30.0869901,-0.48885 -11.86251,6.39172 -13.1352,6.79221 -23.0063599,7.23974 -8.19812,0.37168 -10.53762,0.087 -17,-2.06877 -23.11084,-7.70941 -27.47456,-7.64432 -48.41582,0.72213 -7.73586,3.09063 -10.03405,3.56459 -17.28442,3.56459 -7.567638,0 -9.451368,-0.43076 -19.823988,-4.53324 -12.27581,-4.85522 -21.18026,-6.97459 -25.5943,-6.09178 -1.50628,0.30125 -6.11972,2.17435 -10.25211,4.16244 -8.52547,4.10159 -16.49135,6.45829 -21.623,6.39713 -1.925,-0.0229 -6.875,-1.07835 -11,-2.34536 z m -77,-17.1768 c -2.475,-0.76443 -5.4,-1.80735 -6.5,-2.31761 -1.1,-0.51026 -6.275,-2.65283 -11.5,-4.76126 -8.63167,-3.48313 -10.34495,-3.83352 -18.7443,-3.83352 -8.83183,0 -9.14606,-0.0741 -7.04268,-1.66068 2.93276,-2.21219 11.10601,-3.128 17.3096,-1.93955 2.76243,0.52922 9.51243,2.44741 15,4.26264 8.45846,2.79798 11.42362,3.30151 19.47738,3.30757 l 9.5,0.007 10.5,-5.48413 c 10.18087,-5.31744 10.74315,-5.48391 18.5,-5.47708 7.03107,0.006 9.69563,0.60739 22,4.96378 18.81413,6.66119 23.61077,6.71815 38.5,0.45714 9.55715,-4.01883 11.21836,-4.40949 18.5,-4.35053 6.32643,0.0512 9.98737,0.75061 17.5,3.34323 5.225,1.80316 10.625,3.85412 12,4.55771 1.375,0.70358 5.0875,1.85339 8.25,2.55513 5.727738,1.27095 7.024878,2.25444 4.334878,3.28669 -1.8858,0.72364 -11.863948,-0.80223 -18.084878,-2.76557 -19.86032,-6.26795 -25.34344,-6.07909 -40.5,1.39497 -14.93431,7.36447 -22.8724,7.88153 -37.70039,2.45566 -22.68212,-8.29986 -26.56865,-8.44745 -41.29961,-1.56829 -11.5486,5.39304 -20.60171,6.46932 -30,3.56656 z m 237.999998,-1.50493 c -3.575,-0.34669 -8.3,-1.32835 -10.5,-2.18147 -12.62999,-4.89769 -21.36007,-7.70083 -24.0201,-7.71261 -1.66105,-0.007 -6.26786,0.88662 -10.23734,1.98662 -8.63472,2.3928 -8.24256,2.36945 -8.24256,0.49076 0,-1.67138 8.54044,-7.29935 14,-9.2257 7.75061,-2.73474 11.4522,-1.97206 36.5,7.52048 5.60364,2.12365 8.79533,2.66582 16,2.71789 5.0756799,0.0367 8.9999999,0.48616 8.9999999,1.03081 0,1.41669 -6.4707699,4.34226 -11.5707299,5.23137 -2.4361,0.4247 -7.35427,0.48854 -10.92927,0.14185 z m 14.5,-13.25418 c -2.2,-0.73019 -6.025,-2.33289 -8.5,-3.56155 -12.60773,-6.25885 -19.14593,-8.21806 -26.68997,-7.99778 -4.03438,0.1178 -7.59361,-0.0442 -7.9094,-0.35998 -0.31579,-0.31579 0.62783,-1.36173 2.09692,-2.32432 1.75095,-1.14727 5.36997,-1.90639 10.50588,-2.20371 6.8596,-0.39709 9.3074,-0.0123 19.66569,3.09134 6.50698,1.94969 14.6689299,4.09398 18.1376599,4.76508 7.55012,1.46074 10.61403,0.75109 23.1932201,-5.37197 7.80017,-3.79682 9.15866,-4.13747 16.5,-4.1375 7.11161,-3e-5 8.95796,0.42612 16.62643,3.83745 4.74454,2.11061 9.91954,4.89503 11.5,6.1876 2.75466,2.25288 2.78083,2.35162 0.63242,2.3861 -1.23263,0.0198 -5.63862,-1.13729 -9.79108,-2.57127 -6.11292,-2.11098 -8.92203,-2.53575 -14.75885,-2.23172 -6.23693,0.32486 -8.75511,1.10818 -18.67652,5.80965 -10.7236701,5.08163 -12.0211201,5.45284 -20.00000011,5.72218 -5.19047999,0.17521 -10.09909989,-0.23197 -12.53239989,-1.0396 z m -164.246978,-1.6471 c -2.33583,-0.49547 -10.21083,-3.44938 -17.5,-6.56425 -12.03721,-5.14384 -13.96389,-5.67617 -21.00192,-5.80266 -4.2619,-0.0766 -7.7494,-0.36692 -7.75,-0.64516 -0.003,-1.58708 7.34908,-3.47226 13.4989,-3.46111 5.43232,0.01 9.68746,0.89623 19,3.95785 10.31082,3.38981 13.26688,3.94965 21,3.97715 8.95757,0.0318 9.04951,0.006 19.5,-5.38313 9.65038,-4.97695 11.06641,-5.42199 17.5,-5.5 4.53898,-0.055 9.03524,0.60784 12.78894,1.88545 6.96116,2.3693 8.1182,1.86797 11.68548,-5.06317 2.27713,-4.42442 2.52264,-6.03844 2.49568,-16.40715 -0.0261,-10.03865 -0.33138,-12.11502 -2.40236,-16.33985 -1.30486,-2.66192 -2.89244,-5.03939 -3.52798,-5.28326 -0.63553,-0.24388 -6.30446,2.01522 -12.59763,5.02022 -20.42151,9.75132 -36.49211,14.06764 -61.95225,16.63944 -18.92893,1.91206 -35.26356,-0.95227 -37.85408,-6.63785 -1.48578,-3.26094 -1.43266,-4.92446 0.26182,-8.19836 1.66911,-3.22488 11.19327,-12.65519 17.93981,-17.76303 2.66059,-2.01434 4.46059,-4.01023 4,-4.4353 -0.46059,-0.42506 -6.23743,-2.42782 -12.83743,-4.45056 -21.69827,-6.65 -35.93019,-13.22598 -39.10261,-18.06771 -1.88384,-2.8751 -1.18664,-7.25946 1.63623,-10.28945 5.14666,-5.52429 24.30884,-15.89098 34.72803,-18.78778 3.43109,-0.95392 6.23835,-2.27657 6.23835,-2.9392 0,-0.66264 -4.18638,-6.58565 -9.30307,-13.16225 -13.89025,-17.85348 -23.50501,-34.94926 -22.31723,-39.68175 0.54368,-2.1662 1.23178,-2.62331 3.94896,-2.62331 6.12538,0 20.0993,4.21966 37.17134,11.22451 9.35,3.83641 17.9615,7.19805 19.13666,7.4703 2.12243,0.49172 2.13914,0.35248 2.50791,-20.90595 0.32112,-18.51114 0.614,-21.77144 2.16897,-24.14464 1.37219,-2.09422 2.31716,-2.59555 3.9921,-2.11789 4.52936,1.29168 13.16516,6.22021 24.24069,13.8344 6.28879,4.3234 12.03748,7.62922 12.77486,7.34626 0.73739,-0.28296 2.60637,-4.04529 4.1533,-8.36073 6.58905,-18.38135 16.45451,-39.07184 22.34778,-46.86923 5.12767,-6.78442 7.34172,-6.68968 12.221538,0.52297 6.35967,9.39993 12.52217,21.89914 18.48868,37.5 3.1552,8.25 6.37364,16.25865 7.1521,17.797 1.39327,2.75331 1.45187,2.76893 3.75161,1 21.63125,-16.63843 29.04842,-21.297 33.90811,-21.297 4.83439,0 5.15569,1.59883 5.15569,25.65544 0,26.45121 -1.13295,25.06759 14.26024,17.41545 16.09001989,-7.99853 29.18042,-12.19272 39.98976,-12.81279 l 9.25,-0.53062 v 2.94843 c 0,5.4163 -5.99522,15.66289 -21.83814,37.32409 -5.0283401,6.875 -9.1468101,13.00101 -9.1521501,13.61336 -0.005,0.61234 2.70346,1.68913 6.01956,2.39285 3.3161001,0.70373 6.2676601,1.66522 6.5590201,2.13665 0.29136,0.47142 1.3001,0.85714 2.24164,0.85714 2.98076,0 17.1926,8.98068 22.78752,14.39978 4.49542,4.35416 5.38255,5.79131 5.38255,8.71973 0,4.57979 -3.37452,7.80209 -12.40369,11.84418 -7.27636,3.25741 -23.5063,8.62787 -34.8463101,11.5306 -3.7125,0.95029 -6.73894,2.01533 -6.72542,2.36676 0.0135,0.35142 4.32487,4.00307 9.58079,8.11477 13.2000801,10.32641 17.6014701,15.24289 17.2047901,19.21823 -0.19098,1.91381 -1.27084,3.81284 -2.81016,4.9419 -3.32424,2.43826 -16.57527011,4.86585 -26.5,4.8548 -8.51524,-0.009 -30.37246,-2.28566 -39.5,-4.11349 -8.77839,-1.75791 -25.91948,-7.65145 -33.19828,-11.41441 -3.68406,-1.90457 -7.05906,-3.46349 -7.5,-3.46426 -0.44095,-7.8e-4 -0.65428,5.80806 -0.47407,12.90854 0.2236,8.81009 -0.17337,15.58372 -1.25,21.32934 -0.86771,4.63066 -1.57765,9.60599 -1.57765,11.05628 0,5.28577 6.93198,6.11021 19.55602,2.32585 4.36919,-1.30977 8.12872,-2.21253 8.35452,-2.00613 0.97311,0.88952 -3.45523,4.38008 -8.23184,6.48858 -4.02958,1.77875 -7.55304,2.37817 -15.87904,2.7014 -10.360658,0.40221 -11.119838,0.28153 -23.915548,-3.80174 -16.96499,-5.41374 -20.40267,-5.28013 -34.32986,1.33434 -8.21492,3.90153 -11.17337,4.79738 -17,5.14777 -3.87984,0.23332 -8.96539,0.0188 -11.30123,-0.47664 z m 76.48513,-12.82319 c 3.828818,-2.43177 6.619268,-27.63839 4.381318,-39.57717 -1.64663,-8.7843 -5.495328,-16.60582 -8.171138,-16.60582 -1.35676,0 -1.95724,0.46567 -1.61184,1.25 5.36169,12.17524 6.043858,14.659 6.464948,23.53853 0.469,9.88967 -1.092998,17.89598 -4.986348,25.55842 -1.07506,2.11583 -1.71238,4.47833 -1.41626,5.25 0.58689,1.52941 3.37258,1.83517 5.33932,0.58604 z M 0.96993789,478.8964 c 1.67200001,-0.58286 3.04000001,-1.62221 3.04000001,-2.30966 0,-1.5872 -9.24293,-10.61741 -14.4999999,-14.1663 -2.2,-1.48515 -6.475,-3.86755 -9.5,-5.29421 -5.36167,-2.52869 -6.0156,-2.59393 -26,-2.59393 -20.52824,0 -41.49133,1.86793 -42.68771,3.80372 -0.93101,1.5064 1.68594,3.03364 15.01645,8.76351 17.16147,7.37654 27.79421,10.26987 45.67126,12.42785 11.96744,1.44462 23.7418499,1.18808 28.95999989,-0.63098 z M -183.41374,478.9691 c 17.96089,-1.74819 39.5618,-7.79868 55.44364,-15.52996 8.9829,-4.37287 12.32919,-7.02897 9.84266,-7.81255 -0.74944,-0.23617 -10.16378,-0.67298 -20.92076,-0.97067 -10.75698,-0.2977 -22.85928,-1.08644 -26.89401,-1.75276 -7.99452,-1.32027 -16.50417,-0.23678 -22.50677,2.86567 -7.35108,3.79938 -24.54108,17.64984 -24.54108,19.77341 0,1.5704 2.42035,2.46566 9.46391,3.50058 7.41097,1.08891 8.19675,1.08603 20.11241,-0.0737 z m 132.923678,-32.91114 c 38.00578,-2.58203 57.8230399,-6.57001 77.24926,-15.54548 10.88518,-5.02926 9.72304,-8.12258 -5.76681,-15.34975 -12.2239301,-5.70338 -18.2756501,-7.4702 -23.5504401,-6.87566 -4.55388,0.51329 -5.47475,1.05096 -22.9320099,13.38945 -13.09769,9.25722 -30.6515,18.96495 -42.25,23.36538 -3.95482,1.50045 -4.31446,3.36495 -0.5,2.59222 1.5125,-0.3064 9.5,-1.01567 17.75,-1.57616 z m -85.999998,-0.0257 c -0.33992,-0.55 -1.06617,-1 -1.61388,-1 -1.61994,0 -20.52323,-8.63711 -21.88612,-10 -0.275,-0.275 -2.525,-1.59122 -5,-2.92493 -6.47783,-3.49073 -20.57651,-13.03895 -27.72939,-18.77952 -8.75681,-7.0278 -12.58606,-8.10644 -20.51787,-5.77954 -3.43901,1.00887 -8.02353,2.70713 -10.18783,3.7739 -6.03063,2.97247 -20.56491,12.66152 -20.56491,13.70928 0,1.20719 2.14532,2.28586 9.5,4.77661 14.28324,4.83718 24.36815,7.45604 43.5,11.29615 7.69235,1.544 20.867,3.11378 37,4.40864 8.525,0.68422 16.08906,1.306 16.80902,1.38173 0.71996,0.0757 1.0309,-0.31232 0.69098,-0.86232 z m 54.842848,-4.89512 c 21.11427,-7.93088 45.80095,-21.46824 57.65074,-31.61375 8.0571,-6.8983 20.6166399,-19.46481 25.9766999,-25.99113 6.38204,-7.77066 16.4224401,-22.77257 17.9761601,-26.85915 1.30226,-3.4252 0.6909,-3.40354 -10.5088601,0.37243 -8.89147001,2.99774 -10.94229,3.8398 -21.4375899,8.80225 -21.0812,9.96773 -44.22743,28.00457 -60.4011,47.0679 -12.26764,14.45943 -23.32511,32.11657 -20.11243,32.11657 0.26756,0 5.15293,-1.7528 10.85638,-3.89512 z m -33.342848,0.55016 c 0,-3.15338 -15.51724,-24.85879 -25.07901,-35.08035 -8.56159,-9.15237 -35.17763,-31.57469 -37.48019,-31.57469 -0.29528,0 -3.10276,-1.64196 -6.23884,-3.64881 -16.49896,-10.55805 -45.20196,-21.65131 -45.20196,-17.46986 0,1.54383 9.76166,16.56935 16.15538,24.86699 20.80104,26.99513 52.5403,49.76168 84.84462,60.85898 10.58928,3.63767 13,4.0174 13,2.04774 z m 14.7506,-3.40504 c 5.276158,-7.69004 12.393298,-23.89802 16.137388,-36.75 7.94611,-27.27579 7.9574,-45.513 0.0441,-71.22057 -4.91493,-15.96694 -17.379188,-41.30682 -20.296068,-41.26196 -0.62481,0.01 -2.78852,2.82211 -4.80823,6.25 -11.12002,18.87309 -16.37555,34.94797 -18.98488,58.0682 -2.33123,20.65617 2.40281,48.99304 11.03048,66.02586 4.07094,8.03688 12.7408,21.61522 13.80851,21.62626 0.65004,0.007 2.03096,-1.22529 3.06869,-2.73779 z m 38.249398,-48.75709 c 1.925,-2.02595 7.67838,-7.29311 12.7853,-11.70482 11.57402,-9.99844 12.77755,-12.40652 11.28468,-22.57894 -0.58849,-4.00996 -1.06998,-11.99746 -1.06998,-17.75 0,-5.75253 -0.23941,-10.45915 -0.53203,-10.45915 -1.13829,0 -26.1008,18.2991 -28.34289,20.77714 -2.15348,2.3801 -2.31935,3.23547 -1.779,9.17385 0.52386,5.75704 -0.98503,24.99152 -2.98176,38.00971 l -0.68418,4.46069 3.90993,-3.12248 c 2.15046,-1.71736 5.48493,-4.78006 7.40993,-6.806 z m -72.471788,5.76345 c -2.84882,-11.35058 -4.27801,-23.52322 -3.79666,-32.33678 0.65148,-11.92878 -0.54629,-14.85887 -9.10808,-22.28102 -8.60025,-7.45549 -21.45024,-16.72811 -21.98364,-15.86351 -1.4983,2.42865 -2.21508,13.78527 -1.71583,27.18558 l 0.576,15.46062 5.60981,4.53938 c 6.41663,5.19223 16.90797,14.36476 24.31737,21.26054 5.85619,5.45023 7.05884,5.85142 6.10103,2.03519 z m 318.97179,33.34435 c -8.89168,-4.23199 -16.03828,-12.96026 -23.06188,-28.16587 -1.91334,-4.14225 -3.58215,-8.49253 -3.70846,-9.66729 -0.25304,-2.35334 1.88207,-3.39534 30.27034,-14.77292 10.94438,-4.38634 14.79521,-6.39537 15.70389,-8.19294 0.66214,-1.30987 3.06794,-3.42923 5.34622,-4.7097 3.50256,-1.96855 4.35224,-2.11682 5.50145,-0.96005 1.59602,1.60652 12.15092,24.58818 15.43994,33.61806 1.25206,3.4375 2.66619,6.25 3.14249,6.25 1.17719,0 1.10389,-7.36212 -0.0851,-8.55115 -1.74562,-1.74558 -6.04889,-14.44931 -6.04889,-17.85687 0,-3.60908 1.4241,-7.4937 4.30657,-11.74731 1.61392,-2.38163 1.65426,-3.00265 0.39144,-6.02502 -0.77438,-1.85333 -2.98885,-5.04594 -4.92106,-7.09467 -2.96707,-3.14601 -4.16304,-3.72498 -7.69469,-3.72498 -5.65603,0 -10.38346,2.47564 -9.57736,5.01544 0.47399,1.4934 -0.43841,2.56192 -4.1718,4.88564 -3.41433,2.12513 -5.13135,2.68132 -6.0146,1.94829 -0.89125,-0.73968 -4.10733,0.63145 -11.52732,4.9145 -34.83653,20.10874 -34.33976,19.85567 -36.10262,18.39262 -2.17802,-1.8076 -5.14478,-9.1057 -4.10539,-10.0991 1.00381,-0.95941 18.45422,-11.05739 19.10836,-11.05739 0.2225,0 2.86666,-1.575 5.87592,-3.5 3.00926,-1.925 5.6554,-3.5 5.8803,-3.5 0.2249,0 3.14116,-1.62759 6.48058,-3.61688 3.83874,-2.28672 6.07167,-4.27851 6.07167,-5.41597 0,-0.9895 1.84972,-3.2641 4.11049,-5.05466 3.34033,-2.64559 4.44129,-3.04899 5.87598,-2.15301 1.32979,0.83046 2.25376,0.76056 3.74401,-0.28325 2.56179,-1.79435 10.18301,-4.443 12.83802,-4.46168 1.13767,-0.008 4.45573,0.69438 7.37345,1.56085 10.62032,3.1539 19.3165,14.9676 25.03271,34.00676 1.61195,5.36897 2.7166,10.10838 2.45477,10.53203 -0.26183,0.42364 -2.53206,1.07857 -5.04497,1.45541 -5.19364,0.77883 -5.15994,0.49911 -1.32684,11.01365 2.16417,5.93651 2.3918,6.1717 9.43678,9.75 3.97051,2.01671 7.63345,3.66675 8.13985,3.66675 0.50641,0 1.86457,0.66108 3.01814,1.46907 2.03975,1.4287 2.05441,1.6235 0.53366,7.08724 -1.49074,5.35591 -1.69364,5.59217 -4.34664,5.06157 -1.5306,-0.30612 -6.40831,-2.21379 -10.83935,-4.23928 l -8.05646,-3.6827 -3.7218,3.13047 c -4.25701,3.58065 -12.07091,7.44551 -13.75029,6.80107 -0.62333,-0.23919 -2.1347,-3.29072 -3.35861,-6.78117 -4.07802,-11.63009 -11.34996,-29.7882 -12.63133,-31.54059 -0.95047,-1.29985 -1.60297,-1.45815 -2.62336,-0.63647 -0.74701,0.60155 -6.98321,3.35423 -13.85821,6.11706 -16.7205,6.71942 -20,8.15104 -20,8.73077 0,0.71481 3.15193,6.33844 6.29876,11.23815 3.13729,4.88487 10.00608,10.24481 13.12877,10.24481 6.24089,0 8.44334,-6.41879 4.45009,-12.96927 l -2.11491,-3.46926 3.36864,-2.81975 c 4.55839,-3.81562 7.81077,-4.56564 9.24981,-2.13305 4.34294,7.34144 5.83677,17.03761 3.55522,23.07623 -3.80222,10.06342 -16.41417,14.16183 -27.43638,8.91581 z m -583.55844,-5.16973 c -4.15714,-1.4027 -8.81612,-3.5532 -10.35329,-4.7789 l -2.79486,-2.22854 2.84601,-4.71177 c 1.56531,-2.59147 3.36711,-4.71177 4.004,-4.71177 0.63689,0 3.53979,1.1035 6.45088,2.45223 10.25358,4.75055 20.91177,4.26897 26.37236,-1.19162 3.79015,-3.79015 6.53334,-9.52639 6.53334,-13.66175 0,-5.09331 -1.60439,-5.24717 -3.88429,-0.37249 -2.57204,5.49932 -3.88055,7.05075 -8.13339,9.64331 -6.95223,4.23813 -16.25481,2.20936 -25.8199,-5.63097 l -3.97873,-3.26128 -2.95424,7.76128 c -1.62484,4.26871 -3.29624,8.88629 -3.71424,10.26129 -1.432,4.71061 -2.22207,4.96084 -7.54914,2.39098 -2.74843,-1.32589 -4.96607,-3.07925 -4.96607,-3.92639 0,-5.36397 17.71796,-45.49703 28.08039,-63.60506 4.35883,-7.61693 5.41079,-8.83841 7.13932,-8.2898 3.25268,1.03237 8.78029,4.5434 8.78029,5.57708 0,0.5221 -1.51043,3.31044 -3.35651,6.19633 -4.23866,6.6261 -10.86394,19.76974 -10.26645,20.36723 1.90636,1.90637 8.73265,-6.95204 10.1799,-13.21037 0.75445,-3.26247 7.05522,-10.5 9.14097,-10.5 0.71061,0 3.98003,2.16603 7.26539,4.8134 6.81526,5.4918 15.88088,10.27899 24.3729,12.87034 l 5.83619,1.78093 -0.67147,5.51766 c -0.36931,3.03472 -1.05848,5.92055 -1.53148,6.41295 -1.76712,1.83961 -18.29122,-4.44566 -28.59588,-10.87703 l -4.12644,-2.5754 -2.01834,4.27858 c -2.75581,5.84191 -8.23701,11.22429 -14.23033,13.97378 -2.75101,1.26205 -4.85388,2.74692 -4.67305,3.29971 0.55673,1.7019 6.84822,5.50508 9.10688,5.50508 2.60476,0 5.56772,-4.63248 5.56772,-8.70493 0,-4.93102 2.14127,-8.21348 5.81334,-8.91155 8.09803,-1.53944 16.68172,2.37802 20.17452,9.20734 2.39457,4.68199 1.94684,16.86756 -0.83614,22.75692 -7.5627,16.0042 -24.62393,22.35453 -43.21016,16.0832 z m 537.70718,-61.94769 c -1.5682,-2.48222 -2.61657,-5.12474 -2.32972,-5.87226 0.44798,-1.16741 7.62955,-6.22094 36.38489,-25.60336 3.96595,-2.67323 5.09737,-3.98345 4.75608,-5.50767 -0.3288,-1.4684 0.61729,-2.73095 3.55944,-4.75 2.20399,-1.5125 4.56376,-2.74773 5.24392,-2.74497 1.77211,0.007 11.01774,13.82008 10.37376,15.49828 -0.9712,2.53089 -8.48214,6.87019 -9.88149,5.70884 -0.92244,-0.76556 -3.12672,0.22186 -8.257,3.69879 -3.84924,2.60873 -13.41526,9.09598 -21.25781,14.4161 -7.84256,5.32013 -14.59256,9.67216 -15,9.67117 -0.40745,-9.8e-4 -2.02388,-2.0327 -3.59207,-4.51492 z M -353.75926,348.9722 c -12.2784,-8.51653 -21.01598,-13.93705 -22.16345,-13.74951 -2.62671,0.42933 -11.28697,-5.17568 -10.63242,-6.88141 1.0571,-2.75476 8.77038,-13.45054 10.05553,-13.94369 2.25519,-0.8654 9.50954,4.60471 9.50954,7.17063 0,1.76672 2.38393,3.88894 10.75,9.56987 5.9125,4.01485 11.26341,7.77098 11.89091,8.34697 0.62749,0.57598 5.01499,3.65599 9.75,6.84445 4.735,3.18847 8.60909,6.49157 8.60909,7.34023 0,1.92266 -5.14235,9.3124 -6.5,9.34072 -0.55,0.0115 -10.12114,-6.30574 -21.2692,-14.03826 z m 480.90378,-4.02392 c -3.25538,-3.78672 -3.31185,-3.99649 -1.72695,-6.41535 0.90116,-1.37535 1.9656,-2.50552 2.36542,-2.51149 1.23151,-0.0184 19.22695,-17.48818 19.22695,-18.66533 0,-1.36324 -3.27522,-2.22523 -13,-3.42141 -4.125,-0.50739 -9.20841,-1.19468 -11.29648,-1.5273 l -3.79648,-0.60476 0.29648,-5.63517 0.29648,-5.63517 3.75,-0.31037 3.75,-0.31036 v -9.76532 c 0,-9.06734 0.17493,-9.92966 2.44733,-12.06447 2.25738,-2.1207 3.13059,-2.26594 11.25,-1.87124 9.19605,0.44704 11.78804,1.44046 17.62215,6.7539 3.6346,3.31024 5.45864,7.26488 6.41325,13.90439 l 0.76727,5.33653 2.40301,-2.08653 c 1.32166,-1.14759 2.97087,-2.08653 3.66493,-2.08653 1.50503,0 9.43206,9.70416 9.43206,11.5466 0,2.0021 -7.811,7.7399 -9.60128,7.05291 -1.0612,-0.40722 -5.89347,3.32924 -15.06727,11.6505 -7.42778,6.7375 -15.60349,14.1452 -18.16825,16.46157 -2.56476,2.31637 -5.3382,4.19078 -6.1632,4.16535 -0.825,-0.0254 -3.01444,-1.80785 -4.86542,-3.96095 z m 24.86542,-44.86893 c 0,-4.41 -1.85102,-7.65188 -5.48707,-9.61002 -5.08391,-2.73787 -6.51293,-1.53807 -6.51293,5.46823 v 5.96802 l 3.25,0.40332 c 8.36269,1.03781 8.75,0.93912 8.75,-2.22955 z m -487.7369,32.0279 c -6.00716,-2.04731 -11.39188,-5.54913 -16.26665,-10.57861 l -3.39554,-3.50331 3.90249,-3.99652 c 2.14637,-2.19808 4.37367,-3.99545 4.94955,-3.99416 0.57588,10e-4 2.62205,1.37797 4.54705,3.0593 9.991,8.72631 19.9586,9.93162 26.17558,3.16523 5.29039,-5.75792 5.82224,-11.29299 1.53517,-15.97688 -3.19893,-3.49503 -7.1642,-2.93971 -11.85717,1.66056 l -3.98936,3.91056 -4.93211,-2.64561 c -2.71266,-1.45509 -4.93211,-3.12619 -4.93211,-3.71356 0,-2.32525 6.4422,-9.63679 10.67836,-12.11934 9.29768,-5.44881 20.29344,-2.59986 27.20746,7.04931 3.14934,4.39521 3.50778,5.56289 3.53011,11.5 0.0312,8.29553 -2.41281,13.91336 -8.82422,20.2835 -7.68066,7.63122 -17.3432,9.64348 -28.32861,5.89953 z m -29.97569,-21.34105 c -2.31692,-1.77864 -4.22942,-3.95613 -4.25,-4.83885 -0.0454,-1.94689 13.47184,-17.58993 27.55257,-31.88568 l 10.33284,-10.49063 4.03859,3.94358 c 2.22122,2.16897 4.03859,4.36088 4.03859,4.87091 0,0.51004 -5.77794,6.87852 -12.83986,14.1522 -7.06192,7.27367 -15.43761,16.44004 -18.61264,20.36971 -3.17503,3.92967 -5.83459,7.13762 -5.91014,7.12876 -0.0755,-0.009 -2.03302,-1.47135 -4.34995,-3.25 z m 84.11972,-5.56399 c -0.52346,-0.36845 -3.1917,-3.36684 -5.92944,-6.66309 -2.73773,-3.29624 -5.42769,-6.50284 -5.97769,-7.12576 -0.55,-0.62292 -5.47964,-6.58957 -10.95477,-13.25922 -7.5126,-9.15166 -10.38518,-11.99002 -11.70926,-11.56978 -1.13353,0.35977 -2.56525,-0.39432 -4.04523,-2.13062 -1.25991,-1.47812 -2.93223,-3.34947 -3.71627,-4.15857 -1.1224,-1.15826 -1.17646,-1.86992 -0.25421,-3.34668 0.98569,-1.57833 0.79254,-2.12379 -1.21869,-3.4416 -4.1722,-2.73373 -9.01786,-2.93557 -13.88701,-0.57846 -4.15784,2.01278 -17.71456,14.4644 -17.71456,16.27054 0,0.45833 -0.72274,0.83333 -1.6061,0.83333 -2.2816,0 -9.3939,-5.86037 -9.3939,-7.74036 0,-2.44394 15.862,-17.41164 22,-20.75964 4.81546,-2.62661 6.4957,-2.9995 13.5,-2.99595 6.9271,0.004 8.53842,0.35407 12.01468,2.61399 2.20807,1.43547 4.60982,3.32705 5.33722,4.20351 0.87452,1.05374 2.24302,1.40947 4.03979,1.05011 2.31496,-0.46299 3.12951,0.0514 5.50172,3.47454 1.81514,2.61924 2.5677,4.70099 2.16177,5.97995 -0.60541,1.90746 6.85165,11.86833 22.96352,30.67385 5.42873,6.33634 8.4813,10.51211 8.4813,11.60204 0,1.32707 -8.67172,7.71625 -9.59287,7.06787 z m 29.59287,-13.82678 c -6.76767,-2.58613 -4.34912,-13.34313 3,-13.34313 5.61827,0 9.08781,6.81563 5.75,11.2954 -1.35028,1.81225 -6.32164,2.97568 -8.75,2.04773 z M 53.388038,279.54255 c -3.07097,-1.84086 -7.59656,-7.29825 -17.75,-21.40468 -7.49546,-10.41362 -13.6281,-19.43143 -13.6281,-20.03958 0,-0.85114 4.06177,-8.11231 5.5201,-9.86821 0.13805,-0.16622 8.89981,0.39628 19.47057,1.25 10.57077,0.85372 21.08477,1.53818 23.36445,1.52101 l 4.14488,-0.0312 -4,-2.53722 c -2.2,-1.39548 -10.62854,-5.76893 -18.73009,-9.7188 -8.10155,-3.94986 -14.73905,-7.68686 -14.75,-8.30444 -0.0247,-1.39286 3.9021,-10.37712 4.53558,-10.37712 1.14756,0 24.46047,11.44075 32.74623,16.07013 13.51021,7.54834 36.698282,23.09137 36.698282,24.59894 0,1.59138 -5.18531,9.24009 -6.30001,9.29297 -0.44,0.0209 -4.44514,-2.44441 -8.900312,-5.4784 -4.45517,-3.03399 -8.2276,-5.38906 -8.38318,-5.23349 -0.15557,0.15558 1.37457,3.62191 3.40032,7.70297 3.21908,6.48515 3.68318,8.32993 3.68318,14.64067 0,6.57125 -0.27645,7.56213 -3.07426,11.01891 -3.3938,4.19315 -9.28124,7.95865 -10.46924,6.69594 -0.41844,-0.44476 -1.4915,-2.99624 -2.38457,-5.66995 l -1.62378,-4.86131 2.62836,-2.43588 c 2.23511,-2.07143 2.52845,-2.96847 1.96059,-5.99546 -0.92629,-4.93754 -2.31694,-8.34605 -3.40514,-8.34605 -0.80029,0 -6.52601,9.30774 -15.53272,25.25 -1.47595,2.6125 -3.22708,4.74574 -3.89139,4.74054 -0.66432,-0.005 -3.06271,-1.12133 -5.32975,-2.48029 z m 7.6219,-25.62462 c 2.475,-4.44524 4.63814,-8.45244 4.80698,-8.90487 0.16883,-0.45244 -2.08117,-1.07053 -5,-1.37354 -11.99265,-1.24499 -19.80698,-1.65887 -19.80698,-1.04906 0,1.29561 13.52821,19.39979 14.5,19.40469 0.55,0.003 3.025,-3.63198 5.5,-8.07722 z m -340.257278,22.57361 c -1.5085,-2.49741 -2.74272,-4.90784 -2.74272,-5.3565 0,-0.44866 2.25667,-4.73749 5.01483,-9.53074 2.75816,-4.79324 4.7566,-9.13281 4.44099,-9.64349 -1.19548,-1.93432 -15.00551,-0.1653 -18.19704,2.33098 -1.5074,1.17902 -5.84073,-3.16405 -9.66082,-9.68254 l -2.57939,-4.4014 6.74072,-4.97928 c 14.57624,-10.76729 41.97014,-26.65256 43.80154,-25.3998 2.10452,1.43959 5.48579,8.48128 4.92339,10.25324 -0.59337,1.86955 0.11148,3.13621 16.88654,30.34622 4.71179,7.64277 8.31809,14.2985 8.014,14.79052 -1.01,1.63423 -7.8276,5.39808 -11.88476,6.56133 -2.2,0.63078 -7.15,1.87782 -11,2.77121 -3.85,0.89339 -8.575,2.03808 -10.5,2.54375 -19.56447,5.1393 -19.79207,5.13339 -23.25728,-0.6035 z m 30.10397,-14.52425 c 4.04068,-0.98727 7.57985,-2.02819 7.86482,-2.31316 0.69678,-0.69679 -18.66657,-31.62183 -19.79964,-31.62183 -1.8987,0 -14.96916,9.09828 -14.39803,10.0224 0.33231,0.53768 2.49014,0.98438 4.79518,0.99266 5.65417,0.0203 11.59489,2.21608 13.81825,5.10742 1.96635,2.5571 2.41309,5.89284 0.99475,7.42752 -1.0469,1.13277 -7.12202,12.11176 -7.12202,12.87095 0,0.63714 4.01385,-0.0835 13.84669,-2.48596 z M 0.58641789,253.3847 C -1.5715121,252.60674 -6.2965121,249.48197 -9.9135821,246.44075 -30.776072,228.89964 -38.990062,221.6673 -38.990062,220.83917 c 0,-0.51209 0.71528,-3.11791 1.5895,-5.7907 1.50796,-4.61032 1.8286,-4.91201 6.25,-5.88066 2.56328,-0.56156 6.9105,-1.28822 9.6605,-1.6148 2.75,-0.32657 7.025,-1.00767 9.5,-1.51356 2.4749999,-0.50588 7.8749999,-1.45866 11.99999989,-2.11729 4.12500001,-0.65862 7.85553001,-1.5063 8.29006001,-1.88374 0.66801,-0.58023 -6.2131,-3.00573 -19.7900599,-6.97574 -1.65,-0.48247 -6.48908,-1.6322 -10.7535,-2.55496 -4.26443,-0.92276 -7.98025,-2.04461 -8.25737,-2.49301 -0.27713,-0.4484 -0.0133,-3.10287 0.58637,-5.89884 0.92632,-4.31929 1.43551,-5.08357 3.38685,-5.08357 6.596,0 53.23665,13.72747 55.36861,16.29631 1.40943,1.69826 -2.42788,10.36502 -4.87225,11.00424 -1.03826,0.27151 -2.15268,1.75648 -2.50952,3.34392 -0.35303,1.57054 -1.7274,6.45553 -3.05415,10.85553 -1.32675,4.4 -3.98716,13.56156 -5.91202,20.35902 -1.92486,6.79746 -3.7475401,12.75996 -4.0504001,13.25 -0.73283,1.18574 -3.10098,0.95767 -7.85614001,-0.75662 z M 1.0099379,234.64713 c 0,-1.35249 2.45415,-10.12743 3.9476,-14.11483 1.32497,-3.53758 0.34957,-4.23419 -4.72662001,-3.37569 -2.59653999,0.43913 -7.98347999,1.32051 -11.97097989,1.95862 -3.9875,0.63811 -7.25,1.49348 -7.25,1.90083 0,1.21624 17.1022699,15.01624 18.60954989,15.01624 0.76475,0 1.39045001,-0.62332 1.39045001,-1.38517 z m -31.3450099,16.55643 c -2.47634,-2.73632 -2.15716,-8.70612 0.56752,-10.61456 4.90249,-3.43384 11.77749,0.0125 11.77749,5.90384 0,5.30179 -8.77857,8.6516 -12.34501,4.71072 z m -165.154988,-6.0613 c -15.61848,-7.2084 -15.09039,-27.85478 0.92361,-36.10996 2.07747,-1.07093 6.0088,-1.48876 13.74362,-1.4607 9.29498,0.0337 10.76913,-0.17934 10.3785,-1.5 -0.25041,-0.84662 -0.98871,-3.71513 -1.64067,-6.37447 -0.65196,-2.65934 -1.83077,-5.08283 -2.61957,-5.38552 -1.56924,-0.60217 -2.06471,-0.47007 -23.55512,6.2803 -8.1233,2.55162 -15.36584,4.41051 -16.09455,4.13088 -1.45564,-0.55858 -4.167,-9.022 -3.32617,-10.3825 0.28894,-0.46751 5.17497,-2.3767 10.85784,-4.24264 5.68288,-1.86595 11.23251,-3.73906 12.33251,-4.16248 4.01971,-1.54726 22.66983,-5.90536 27.90422,-6.52056 5.92833,-0.69676 5.79143,-0.82638 7.13227,6.75317 0.36274,2.05054 0.21339,3.90107 -0.34257,4.24467 -1.21194,0.74902 -1.11686,1.15061 7.18829,30.36162 2.53978,8.93298 4.61779,17.11932 4.61779,18.19188 0,1.46541 -1.18061,2.2943 -4.75,3.33495 -2.6125,0.76166 -5.26118,1.20936 -5.88597,0.99489 -0.62478,-0.21447 -1.87199,-3.01314 -2.77158,-6.21926 -1.73534,-6.18471 -6.86629,-12.066 -13.5353,-15.51468 -9.58123,-4.95465 -21.82353,1.10349 -18.21857,9.01551 1.16823,2.564 1.81278,2.76741 9.13788,2.88381 4.09237,0.065 4.62451,0.37144 6.20197,3.57113 2.8058,5.69125 2.38413,7.51488 -2.04445,8.84171 -5.52333,1.65483 -11.02043,1.39754 -15.63398,-0.73175 z m 55.12217,-5.91229 c -0.35073,-0.56749 -0.87941,-3.20663 -1.17485,-5.86474 -0.29543,-2.65811 -0.94779,-7.30793 -1.44969,-10.33293 -0.50191,-3.025 -1.68679,-11.575 -2.63309,-19 -1.38243,-10.84711 -2.10468,-13.8153 -3.67535,-15.10448 -1.31026,-1.07545 -2.11711,-3.29357 -2.44704,-6.72721 -0.58059,-6.04228 0.0297,-6.46182 10.98246,-7.55044 6.43891,-0.63997 6.74463,-0.5717 7.19579,1.60688 1.18444,5.7195 1.15856,8.87979 -0.0811,9.90865 -0.72596,0.6025 -1.10004,2.05645 -0.83129,3.23102 0.468,2.04533 2.01854,13.45007 5.04498,37.10731 0.85371,6.67333 1.0434,11.33192 0.48419,11.89113 -1.36568,1.36568 -10.66649,2.04588 -11.41497,0.83481 z m 78.689078,-0.82895 c -0.34429,-0.8972 -0.11642,-4.3847 0.50637,-7.75 0.6228,-3.36529 1.82974,-11.51872 2.68209,-18.11872 0.85236,-6.6 2.00943,-14.57819 2.57127,-17.72932 0.70508,-3.95449 0.69742,-6.33491 -0.0247,-7.68425 -1.55691,-2.90913 -1.28855,-10.70127 0.42766,-12.41748 0.81065,-0.81065 1.94785,-3.58874 2.52712,-6.17353 1.33726,-5.96715 3.08696,-9.30025 6.65969,-12.68647 7.1983,-6.8225 18.36895,-8.51921 32.46265,-4.93075 8.0672999,2.05405 17.0977999,5.43138 20.6305099,7.71563 l 2.25387,1.45736 -2.62417,5.2244 c -1.4433,2.87343 -2.75323,5.37009 -2.91095,5.54815 -0.15772,0.17805 -1.56609,-0.32601 -3.12970001,-1.12014 -8.28290999,-4.20675 -19.02878989,-7.0989 -26.56832989,-7.15061 -7.30136,-0.0501 -7.88534,0.11168 -10.6392,2.94701 -1.6725,1.72198 -3.19954,4.63073 -3.58454,6.82795 -0.58823,3.35712 -0.40813,3.89661 1.4643,4.38627 1.9504,0.51004 2.07541,1.00055 1.4456,5.67205 -0.80317,5.95741 -1.09834,6.61373 -2.97446,6.61373 -0.81053,0 -1.59477,1.36259 -1.87056,3.25 -0.26118,1.7875 -0.93761,6.4 -1.50317,10.25 -0.56555,3.85 -1.28851,9.025 -1.60657,11.5 -0.31806,2.475 -1.00761,7.2 -1.53234,10.5 -0.52472,3.3 -1.21103,8.1375 -1.52512,10.75 l -0.57109,4.75 h -5.97011 c -4.5978,0 -6.114,-0.37497 -6.59609,-1.63128 z m -19.37669,-3.071 c -0.036,-0.98875 -0.016,-8.99772 0.0444,-17.79772 l 0.10987,-16 -3.29444,-5.46648 c -4.27128,-7.08744 -8.62617,-10.03352 -14.83149,-10.03352 -3.077558,0 -5.522168,0.63228 -6.966518,1.80184 l -2.22518,1.80185 5.27956,1.21867 c 7.449558,1.71956 11.403408,4.48502 13.848058,9.68577 5.34687,11.37498 -0.26583,21.41473 -14.533888,25.99754 -2.82429,0.90715 -6.42429,1.50197 -8,1.32184 -2.79586,-0.31961 -2.86493,-0.47109 -2.86493,-6.28275 v -5.95524 l 3.7825,-0.78588 c 6.67684,-1.38725 9.7175,-3.50571 9.7175,-6.7703 0,-3.80034 -0.77058,-4.17273 -8.77613,-4.24106 -6.08957,-0.052 -7.03046,-0.34641 -9.97387,-3.12101 -4.0612,-3.82828 -4.24599,-7.68977 -0.72423,-15.13416 4.83153,-10.21302 15.25319,-14.79163 27.305818,-11.99644 3.49197,0.80984 7.30852,2.14449 8.48123,2.96588 2.9608,2.07383 3.50799,1.8962 3.87076,-1.25655 0.31243,-2.71529 0.39847,-2.74685 6.81642,-2.50048 3.575,0.13723 7.0625,0.46061 7.75,0.71861 1.88122,0.70598 1.67664,11.15417 -0.23275,11.88688 -1.24623,0.47822 -1.52538,4.60271 -1.75,25.85699 l -0.26725,25.288 -6.25,0.29772 c -5.44007,0.25913 -6.25848,0.0648 -6.31544,-1.5 z"
       id="path9" />
  </g>
</svg>
