<svg width="386" height="331" viewBox="0 0 386 331" fill="none" xmlns="http://www.w3.org/2000/svg">
<g clip-path="url(#clip0_142_51)">
<path d="M188.853 676.868C114.731 671.948 41.9103 646.403 -21.0088 603.251C-44.2003 587.345 -59.9789 574.086 -81.4929 552.425C-138.468 495.062 -177.913 422.483 -194.535 344.425C-196.884 333.393 -198.105 326.269 -201.11 306.055C-203.443 290.362 -204.46 255.85 -203.279 232.437C-202.109 209.253 -201.693 205.519 -197.532 180.925C-192.775 152.811 -181.856 114.482 -173.176 95.4254C-172.674 94.3254 -170.828 90.0504 -169.073 85.9254C-162.71 70.971 -150.477 47.3342 -142.679 34.9254C-122.578 2.94165 -105.587 -18.5807 -80.6892 -43.5939C-46.2773 -78.1656 -14.4978 -101.318 28.3531 -123.034C47.0502 -132.51 50.573 -134.055 73.3531 -142.764C88.3502 -148.498 111.449 -155.062 130.853 -159.105C151.676 -163.444 154.635 -163.899 179.853 -166.642C194.596 -168.246 244.742 -168.499 255.353 -167.023C258.653 -166.564 267.428 -165.456 274.853 -164.561C293.788 -162.279 321.285 -156.667 336.353 -152.009C345.478 -149.188 364.091 -142.926 368.853 -141.074C371.878 -139.899 375.928 -138.349 377.853 -137.632C384.124 -135.294 394.103 -130.756 407.353 -124.215C476.345 -90.1559 535.382 -36.6935 577.567 29.9254C581.92 36.8004 586.174 43.7754 587.021 45.4254C587.867 47.0754 591.916 54.9504 596.019 62.9254C605.464 81.2843 614.931 103.573 620.229 119.925C625.255 135.437 630.663 155.335 632.868 166.425C637.784 191.156 639.559 204.07 640.839 224.425C644.445 281.737 638.352 332.909 621.788 384.425C603.093 442.571 572.693 494.851 531.222 540.176C443.441 636.115 319.628 685.548 188.853 676.868ZM254.353 659.88C261.503 659.362 270.053 658.484 273.353 657.93C276.653 657.375 284.964 655.985 291.822 654.841C339.849 646.824 389.043 627.706 436.853 598.479C445.514 593.184 468.179 576.558 468.621 575.175C468.939 574.178 418.549 573.925 218.936 573.925C69.0804 573.925 -31.1469 574.291 -31.1469 574.837C-31.1469 577.404 6.84687 602.802 25.3531 612.606C40.3845 620.57 40.8986 620.817 59.8531 629.228C83.7262 639.822 120.891 650.826 146.716 654.946C153.666 656.055 161.603 657.386 164.353 657.904C168.617 658.708 182.832 659.88 205.853 661.326C213.238 661.789 238.34 661.041 254.353 659.88ZM512.38 535.691C525.242 522.448 544.853 499.165 544.853 497.139C544.853 496.642 545.733 495.439 546.809 494.466C547.884 493.492 551.327 488.81 554.459 484.061C557.591 479.311 561.307 473.688 562.717 471.563C565.796 466.925 565.516 467.405 574.703 450.952C580.969 439.731 585.792 430.009 592.327 415.425C593.066 413.775 595.117 408.6 596.884 403.925C598.651 399.25 600.662 394.075 601.353 392.425C603.728 386.753 610.853 364.331 610.853 362.528C610.853 361.778 -171.613 361.725 -172.363 362.475C-172.895 363.007 -170.801 371.544 -169.186 375.425C-168.728 376.525 -167.381 380.575 -166.193 384.425C-163.557 392.965 -155.271 414.066 -154.04 415.375C-153.549 415.898 -153.147 416.94 -153.147 417.691C-153.147 418.817 -143.376 439.196 -139.37 446.425C-119.872 481.612 -98.0425 511.564 -73.6469 536.602C-67.5721 542.837 -66.1182 543.828 -62.6469 544.106C-60.4469 544.282 68.0281 544.32 222.853 544.191L504.353 543.956L512.38 535.691ZM151.853 494.45V473.975L147.603 472.108C138.224 467.988 136.789 467.652 131.067 468.242C124.068 468.963 121.806 471.207 121.953 477.286C122.107 483.676 123.164 486.386 125.644 486.745C127.549 487.021 127.853 486.601 127.853 483.695C127.853 481.842 128.393 479.785 129.053 479.125C130.61 477.568 140.096 477.568 141.653 479.125C143.313 480.785 143.271 496.341 141.603 497.695C139.182 499.661 127.275 502.117 120.536 502.042C115.309 501.984 113.034 501.478 110.784 499.876C105.418 496.055 105.386 495.911 103.312 465.909C102.431 453.159 103.255 452.057 114.953 450.36C119.573 449.689 125.403 448.818 127.908 448.424C131.972 447.784 133.32 448.136 140.408 451.685C153.509 458.243 152.853 458.358 152.853 449.493V441.925H128.476C110.176 441.925 103.847 441.614 103.092 440.675C101.917 439.214 101.974 424.011 103.162 422.175C103.785 421.214 112.254 420.925 139.893 420.925H175.815L176.417 423.323C176.748 424.641 176.724 429.254 176.364 433.573C176.004 437.892 175.506 457.963 175.257 478.175L174.805 514.925H163.329H151.853V494.45ZM185.933 513.521C185.07 512.482 184.844 498.764 185.06 460.771C185.348 410.325 185.391 409.355 187.515 405.425C190.202 400.454 194.618 395.953 199.003 393.717C201.952 392.214 257.793 377.925 260.72 377.925C261.501 377.925 261.853 381.641 261.853 389.89C261.853 403.547 262.072 403.197 252.853 404.339C249.828 404.714 246.003 405.422 244.353 405.912C242.703 406.402 237.528 407.546 232.853 408.454C228.178 409.361 223.572 410.514 222.617 411.015C221.662 411.516 219.524 411.925 217.867 411.925C216.186 411.925 213.968 412.81 212.853 413.925C210.913 415.866 210.85 417.339 210.738 463.175C210.674 489.163 210.518 510.875 210.39 511.425C210.262 511.975 210.089 512.988 210.005 513.675C209.774 515.572 187.516 515.43 185.933 513.521ZM279.853 499.401V483.876L277.133 482.842C273.818 481.582 271.865 483.617 271.831 488.367C271.819 490.049 270.978 493.225 269.963 495.425C265.858 504.321 259.252 506.925 240.797 506.925C226.729 506.925 223.172 505.998 218.523 501.119C215.23 497.663 213.91 492.874 213.877 484.257C213.84 474.665 213.516 474.925 225.46 474.925H235.853L235.885 480.175C235.934 488.221 239.279 491.169 244.653 487.901C248.439 485.599 249.392 480.677 248.555 467.758C247.813 456.297 246.526 454.956 234.853 453.477C226.695 452.444 226.418 452.294 222.771 446.95C220.156 443.118 218.731 441.953 216.379 441.722L213.353 441.425V431.425V421.425L258.735 421.165C298.472 420.937 304.257 421.095 305.235 422.431C305.989 423.461 306.142 427.124 305.703 433.692C305.346 439.045 305.008 459.513 304.953 479.175L304.853 514.925H292.353H279.853V499.401ZM279.545 453.175L279.353 442.425L266.514 442.297L253.674 442.168L256.514 444.04C258.075 445.07 259.813 445.915 260.375 445.919C260.937 445.923 263.035 447.275 265.035 448.924C268.226 451.554 271.311 456.56 273.201 462.175C273.586 463.318 274.823 463.925 276.764 463.925H279.738L279.545 453.175ZM314.899 462.393C314.926 405.008 314.529 409.454 320.421 400.462C321.896 398.211 329.296 392.704 331.353 392.326C331.903 392.225 336.178 391.159 340.853 389.959C345.528 388.758 352.053 387.11 355.353 386.296C358.653 385.482 362.928 384.406 364.853 383.906C366.778 383.405 371.278 382.332 374.853 381.521C378.428 380.71 383.153 379.58 385.353 379.01C392.133 377.253 391.853 376.787 391.853 389.818C391.853 402.584 391.738 402.863 386.179 403.532C384.984 403.676 381.159 404.473 377.679 405.302C374.2 406.132 370.003 407.069 368.353 407.385C364.019 408.214 360.947 408.859 355.853 410.008C353.378 410.566 349.621 411.399 347.505 411.858C339.895 413.509 340.314 410.307 340.682 464.014C340.932 500.343 340.719 512.382 339.81 513.477C338.884 514.593 335.881 514.925 326.741 514.925H314.873L314.899 462.393ZM395.853 499.459C395.853 488.921 395.503 483.925 394.764 483.925C394.165 483.925 387.4 487.525 379.731 491.925C372.062 496.325 365.454 499.925 365.047 499.925C364.639 499.925 360.843 496.438 356.61 492.175C348.036 483.542 347.967 482.998 354.996 479.463L359.353 477.272L359.635 466.803C359.908 456.647 359.839 456.26 357.311 453.885C355.388 452.079 353.216 451.305 349.029 450.931L343.353 450.425L343.065 437.425C342.906 430.275 342.998 423.525 343.27 422.425C343.74 420.526 344.507 420.436 358.559 420.633C366.696 420.747 375.102 421.1 377.24 421.417C381.774 422.089 387.419 425.868 390.9 430.562C392.249 432.382 393.691 433.883 394.103 433.898C394.516 433.913 394.853 431 394.853 427.425C394.853 423.85 395.191 420.884 395.603 420.834C399.488 420.363 414.743 420.153 416.113 420.553C417.765 421.035 417.857 423.923 417.613 467.746L417.353 514.425L406.603 514.709L395.853 514.993V499.459ZM390.319 461.24C392.263 460.313 393.853 459.255 393.853 458.889C393.853 457.961 383.947 448.925 382.929 448.925C382.472 448.925 381.571 448.29 380.926 447.513C379.079 445.288 370.445 443.539 367.936 444.881C364.846 446.535 365.331 447.283 370.894 449.441C376.052 451.443 383.331 457.705 384.394 461.055C385.124 463.354 385.841 463.376 390.319 461.24ZM77.0496 507.457L75.896 504.925H54.9396C43.4136 504.925 32.9028 504.515 31.5822 504.013C27.4611 502.446 23.1747 497.338 22.5142 493.208C22.1766 491.097 21.8618 479.112 21.8146 466.575C21.7501 449.442 22.0462 443.398 23.0064 442.241C24.0318 441.005 26.0118 440.784 33.0419 441.12C37.8587 441.35 42.0783 441.817 42.4187 442.158C42.7591 442.498 43.4875 451.473 44.0375 462.101C44.5875 472.729 45.4802 481.963 46.0212 482.619C46.6559 483.39 51.3248 483.928 59.179 484.137C65.8748 484.315 72.0664 484.81 72.9383 485.237C73.9384 485.726 75.352 485.342 76.7681 484.195C78.9461 482.432 79.0118 481.844 78.9797 464.402C78.9481 447.216 78.8518 446.348 76.7891 444.675C75.3341 443.495 72.8879 442.925 69.2775 442.925C63.3165 442.925 61.8531 444.286 61.8531 449.828C61.8531 452.151 62.2145 452.724 63.3951 452.271C64.2432 451.945 64.8663 450.947 64.7799 450.052C64.3404 445.502 64.7869 444.925 68.7461 444.925C70.977 444.925 72.8127 445.459 73.0456 446.175C73.2692 446.863 73.2739 451.813 73.0561 457.175L72.66 466.925H59.1892H45.7185L46.0358 450.675C46.3528 434.437 46.3552 434.422 49.3531 430.232C54.7599 422.673 58.0888 421.514 75.6241 421.085C94.4084 420.625 97.2572 421.07 98.7562 424.7C99.5431 426.605 99.8022 439.762 99.6174 468.425L99.3531 509.425L88.7782 509.707C78.3146 509.987 78.1912 509.963 77.0496 507.457ZM619.461 326.425C623.82 302.823 625.293 284.677 625.266 254.925C625.234 218.622 623.001 197.793 615.46 163.425C611.608 145.875 601.356 113.403 595.884 101.425C595.382 100.325 593.548 96.0504 591.809 91.9254C585.481 76.9172 573.429 54.1256 562.726 36.9254C557.046 27.7989 540.47 4.70499 535.506 -0.996216C533.222 -3.61993 529.328 -8.27238 526.853 -11.335C519.337 -20.6359 489.673 -49.6103 477.353 -59.6853C420.008 -106.579 350.148 -137.5 278.853 -147.544C272.528 -148.435 264.286 -149.603 260.538 -150.139C249.425 -151.73 208.632 -152.365 192.353 -151.201C131.323 -146.835 76.3162 -130.886 23.8531 -102.345C5.25184 -92.2254 -22.2745 -73.851 -36.6469 -61.9601C-49.2599 -51.5248 -55.8783 -45.4552 -68.6469 -32.6135C-102.403 1.33612 -126.832 35.6465 -147.349 77.9254C-153.521 90.6419 -165.147 118.746 -165.147 120.946C-165.147 121.5 -165.601 122.734 -166.156 123.689C-167.198 125.48 -173.304 146.198 -175.658 155.925C-179.283 170.908 -180.227 175.584 -182.521 189.925C-186.603 215.443 -187.471 230.339 -186.804 263.425C-186.472 279.925 -185.782 296.8 -185.271 300.925C-183.71 313.536 -181.223 329.563 -180.56 331.291C-179.98 332.804 -149.638 332.909 219.211 332.677L618.353 332.425L619.461 326.425ZM126.853 295.515C120.113 293.444 115.305 291.634 109.353 288.926C104.893 286.896 96.2109 284.925 91.7306 284.925C86.6 284.925 84.4717 283.529 88.1143 282.553C93.9812 280.98 103.427 282.368 116.353 286.702C134.679 292.846 140.126 292.562 156.057 284.637C166.523 279.43 168.12 278.925 174.118 278.925C178.903 278.925 183.104 279.769 189.525 282.019C214.562 290.792 214.816 290.802 233.6 283.795C246.156 279.111 248.093 278.664 255.853 278.653C262.927 278.643 265.863 279.184 273.353 281.872C290.2 287.92 290.973 288.094 298.853 287.613C304.78 287.251 308.436 286.269 316.285 282.929C330.894 276.713 338.01 277.031 353.099 284.574C363.77 289.909 368.17 291.076 376.673 290.828C380.923 290.704 384.243 291.01 384.107 291.514C383.972 292.015 378.986 292.552 373.027 292.707C362.566 292.978 361.806 292.849 350.94 288.957C335.964 283.592 330.08 283.496 320.853 288.468C308.991 294.859 307.718 295.26 297.847 295.707C289.649 296.079 287.309 295.795 280.847 293.639C257.736 285.929 253.372 285.994 232.431 294.361C224.695 297.451 222.397 297.925 215.146 297.925C207.579 297.925 205.695 297.495 195.322 293.392C183.047 288.537 174.142 286.418 169.728 287.3C168.222 287.602 163.608 289.475 159.476 291.463C150.951 295.564 142.985 297.921 137.853 297.86C135.928 297.837 130.978 296.782 126.853 295.515ZM49.8531 278.338C47.3781 277.573 44.4531 276.53 43.3531 276.02C42.2531 275.51 37.0781 273.367 31.8531 271.259C23.2214 267.776 21.5081 267.425 13.1087 267.425C4.27692 267.425 3.96271 267.351 6.06609 265.765C8.99885 263.553 17.1721 262.637 23.3757 263.825C26.1381 264.354 32.8881 266.273 38.3757 268.088C46.8341 270.886 49.7993 271.389 57.8531 271.395L67.3531 271.402L77.8531 265.918C88.0339 260.601 88.5962 260.434 96.3531 260.441C103.384 260.447 106.049 261.049 118.353 265.405C137.167 272.066 141.964 272.123 156.853 265.862C166.41 261.843 168.071 261.453 175.353 261.512C181.679 261.563 185.34 262.262 192.853 264.855C198.078 266.658 203.478 268.709 204.853 269.413C206.228 270.116 209.941 271.266 213.103 271.968C218.831 273.239 220.128 274.222 217.438 275.254C215.552 275.978 205.574 274.452 199.353 272.489C179.493 266.221 174.01 266.41 158.853 273.884C143.919 281.248 135.981 281.765 121.153 276.339C98.4706 268.04 94.584 267.892 79.8531 274.771C68.3045 280.164 59.2514 281.241 49.8531 278.338ZM287.853 276.833C284.278 276.486 279.553 275.505 277.353 274.651C264.723 269.754 255.993 266.951 253.333 266.939C251.672 266.932 247.065 267.825 243.096 268.925C234.461 271.318 234.853 271.295 234.853 269.416C234.853 267.745 243.393 262.117 248.853 260.19C256.604 257.456 260.305 258.218 285.353 267.711C290.957 269.835 294.148 270.377 301.353 270.429C306.429 270.466 310.353 270.915 310.353 271.46C310.353 272.876 303.882 275.802 298.782 276.691C296.346 277.116 291.428 277.18 287.853 276.833ZM302.353 263.579C300.153 262.849 296.328 261.246 293.853 260.017C281.245 253.758 274.707 251.799 267.163 252.019C263.129 252.137 259.569 251.975 259.254 251.659C258.938 251.344 259.882 250.298 261.351 249.335C263.102 248.188 266.721 247.429 271.857 247.131C278.716 246.734 281.164 247.119 291.522 250.223C298.029 252.172 306.191 254.317 309.66 254.988C317.21 256.449 320.274 255.739 332.853 249.616C340.653 245.819 342.012 245.478 349.353 245.478C356.465 245.478 358.311 245.904 365.979 249.316C370.724 251.426 375.899 254.211 377.479 255.503C380.234 257.756 380.26 257.855 378.112 257.889C376.879 257.909 372.473 256.752 368.321 255.318C362.208 253.207 359.399 252.782 353.562 253.086C347.325 253.411 344.807 254.195 334.885 258.896C324.162 263.978 322.864 264.349 314.885 264.618C309.695 264.793 304.786 264.386 302.353 263.579ZM138.106 261.932C135.77 261.436 127.895 258.482 120.606 255.367C108.569 250.224 106.642 249.691 99.6042 249.565C95.3423 249.488 91.8548 249.198 91.8542 248.92C91.8512 247.332 99.2032 245.447 105.353 245.458C110.785 245.468 115.041 246.355 124.353 249.416C134.664 252.806 137.62 253.366 145.353 253.393C154.311 253.425 154.403 253.399 164.853 248.01C174.503 243.033 175.919 242.588 182.353 242.51C186.892 242.455 191.388 243.118 195.142 244.396C202.103 246.765 203.26 246.264 206.827 239.333C209.105 234.908 209.35 233.294 209.323 222.925C209.297 212.887 208.992 210.81 206.921 206.586C205.616 203.924 204.028 201.546 203.393 201.302C202.757 201.058 197.088 203.318 190.795 206.323C170.374 216.074 154.303 220.39 128.843 222.962C109.914 224.874 93.5794 222.01 90.9889 216.324C89.5031 213.063 89.5562 211.4 91.2507 208.126C92.9198 204.901 102.444 195.471 109.19 190.363C111.851 188.348 113.651 186.352 113.19 185.927C112.73 185.502 106.953 183.5 100.353 181.477C78.6548 174.827 64.4229 168.251 61.2505 163.409C59.3666 160.534 60.0638 156.15 62.8867 153.12C68.0333 147.595 87.1955 137.229 97.6147 134.332C101.046 133.378 103.853 132.055 103.853 131.393C103.853 130.73 99.6667 124.807 94.55 118.23C80.6597 100.377 71.045 83.2812 72.2328 78.5487C72.7764 76.3825 73.4646 75.9254 76.1817 75.9254C82.3071 75.9254 96.281 80.1451 113.353 87.1499C122.703 90.9863 131.315 94.348 132.49 94.6202C134.612 95.112 134.629 94.9727 134.998 73.7143C135.319 55.2032 135.612 51.9428 137.167 49.5696C138.539 47.4754 139.484 46.9741 141.159 47.4518C145.688 48.7434 154.324 53.672 165.399 61.2862C171.688 65.6096 177.437 68.9154 178.174 68.6324C178.912 68.3495 180.781 64.5871 182.328 60.2717C188.917 41.8903 198.782 21.1999 204.675 13.4025C209.803 6.61805 212.017 6.71277 216.897 13.9254C223.257 23.3253 229.419 35.8246 235.386 51.4254C238.541 59.6754 241.759 67.6841 242.538 69.2224C243.931 71.9758 243.99 71.9914 246.289 70.2224C267.921 53.584 275.338 48.9254 280.197 48.9254C285.032 48.9254 285.353 50.5243 285.353 74.5809C285.353 101.032 284.22 99.6484 299.613 91.9963C315.703 83.9978 328.794 79.8036 339.603 79.1835L348.853 78.6529V81.6013C348.853 87.0176 342.858 97.2642 327.015 118.925C321.987 125.8 317.868 131.926 317.863 132.539C317.858 133.151 320.566 134.228 323.882 134.932C327.198 135.635 330.15 136.597 330.441 137.068C330.733 137.54 331.741 137.925 332.683 137.925C335.664 137.925 349.876 146.906 355.471 152.325C359.966 156.679 360.853 158.117 360.853 161.045C360.853 165.625 357.479 168.847 348.449 172.889C341.173 176.147 324.943 181.517 313.603 184.42C309.891 185.37 306.864 186.435 306.878 186.786C306.891 187.138 311.203 190.79 316.458 194.901C329.659 205.228 334.06 210.144 333.663 214.119C333.472 216.033 332.392 217.932 330.853 219.061C327.529 221.5 314.278 223.927 304.353 223.916C295.838 223.907 273.981 221.631 264.853 219.803C256.075 218.045 238.934 212.151 231.655 208.388C227.971 206.484 224.596 204.925 224.155 204.924C223.714 204.923 223.501 210.732 223.681 217.833C223.904 226.643 223.507 233.416 222.431 239.162C221.563 243.793 220.853 248.768 220.853 250.218C220.853 255.504 227.785 256.328 240.409 252.544C244.778 251.234 248.538 250.332 248.764 250.538C249.737 251.427 245.308 254.918 240.532 257.026C236.502 258.805 232.979 259.405 224.653 259.728C214.292 260.13 213.533 260.009 200.737 255.926C183.772 250.512 180.335 250.646 166.407 257.26C158.192 261.162 155.234 262.058 149.407 262.408C145.527 262.642 140.442 262.427 138.106 261.932ZM214.591 249.108C218.42 246.677 221.21 221.47 218.973 209.531C217.326 200.747 213.477 192.925 210.801 192.925C209.445 192.925 208.844 193.391 209.19 194.175C214.551 206.351 215.233 208.834 215.655 217.714C216.124 227.604 214.562 235.61 210.668 243.272C209.593 245.388 208.956 247.751 209.252 248.522C209.839 250.052 212.624 250.358 214.591 249.108ZM315.813 212.79C317.485 212.207 318.853 211.167 318.853 210.48C318.853 208.893 309.61 199.862 304.353 196.314C302.153 194.828 297.878 192.446 294.853 191.019C289.491 188.491 288.837 188.425 268.853 188.425C248.325 188.425 227.362 190.293 226.165 192.229C225.234 193.736 227.851 195.263 241.182 200.993C258.343 208.369 268.976 211.263 286.853 213.421C298.82 214.865 310.595 214.609 315.813 212.79ZM131.429 212.862C149.39 211.114 170.991 205.064 186.873 197.332C195.856 192.959 199.202 190.303 196.716 189.52C195.966 189.284 186.552 188.847 175.795 188.549C165.038 188.251 152.936 187.463 148.901 186.796C140.906 185.476 132.397 186.56 126.394 189.662C119.043 193.461 101.853 207.312 101.853 209.435C101.853 211.006 104.273 211.901 111.317 212.936C118.728 214.025 119.514 214.022 131.429 212.862ZM264.353 179.951C302.359 177.369 322.176 173.381 341.602 164.406C352.487 159.376 351.325 156.283 335.836 149.056C323.612 143.352 317.56 141.586 312.285 142.18C307.731 142.693 306.81 143.231 289.353 155.57C276.255 164.827 258.702 174.535 247.103 178.935C243.148 180.435 242.789 182.3 246.603 181.527C248.116 181.221 256.103 180.512 264.353 179.951ZM178.353 179.925C178.013 179.375 177.287 178.925 176.739 178.925C175.119 178.925 156.216 170.288 154.853 168.925C154.578 168.65 152.328 167.334 149.853 166C143.375 162.51 129.277 152.962 122.124 147.221C113.367 140.193 109.538 139.115 101.606 141.441C98.1668 142.45 93.5823 144.149 91.418 145.215C85.3873 148.188 70.8531 157.877 70.8531 158.925C70.8531 160.132 72.9984 161.21 80.3531 163.701C94.6363 168.538 104.721 171.157 123.853 174.997C131.545 176.541 144.72 178.111 160.853 179.406C169.378 180.09 176.942 180.712 177.662 180.788C178.382 180.863 178.693 180.475 178.353 179.925ZM233.196 175.03C254.31 167.099 278.997 153.562 290.847 143.417C298.904 136.518 311.463 123.952 316.823 117.425C323.205 109.655 333.246 94.6528 334.799 90.5662C336.102 87.141 335.49 87.1627 324.291 90.9387C315.399 93.9364 313.348 94.7785 302.853 99.7409C281.772 109.709 258.626 127.745 242.452 146.809C230.184 161.268 219.127 178.925 222.34 178.925C222.607 178.925 227.492 177.173 233.196 175.03ZM199.853 175.58C199.853 172.427 184.336 150.722 174.774 140.5C166.212 131.348 139.596 108.925 137.294 108.925C136.999 108.925 134.191 107.283 131.055 105.277C114.556 94.7185 85.8531 83.6253 85.8531 87.8067C85.8531 89.3506 95.6147 104.376 102.008 112.674C122.809 139.669 154.549 162.435 186.853 173.533C197.442 177.17 199.853 177.55 199.853 175.58ZM214.604 172.175C219.88 164.485 226.997 148.277 230.741 135.425C238.687 108.15 238.698 89.9124 230.785 64.2048C225.87 48.2379 213.406 22.898 210.489 22.9429C209.864 22.9529 207.701 25.765 205.681 29.1929C194.561 48.066 189.305 64.1408 186.696 87.261C184.365 107.917 189.099 136.254 197.726 153.287C201.797 161.324 210.467 174.902 211.535 174.913C212.185 174.92 213.566 173.688 214.604 172.175ZM252.853 123.418C254.778 121.392 260.531 116.125 265.638 111.713C277.212 101.715 278.416 99.307 276.923 89.1346C276.335 85.1246 275.853 77.1371 275.853 71.3846C275.853 65.632 275.614 60.9254 275.321 60.9254C274.183 60.9254 249.22 79.2245 246.978 81.7025C244.825 84.0826 244.659 84.938 245.199 90.8764C245.723 96.6334 244.214 115.868 242.217 128.886L241.533 133.347L245.443 130.224C247.594 128.507 250.928 125.444 252.853 123.418ZM180.381 129.182C177.532 117.831 176.103 105.659 176.585 96.845C177.236 84.9162 176.038 81.9861 167.477 74.5639C158.876 67.1084 146.026 57.8358 145.493 58.7004C143.995 61.1291 143.278 72.4857 143.777 85.886L144.353 101.347L149.963 105.886C156.38 111.078 166.871 120.251 174.28 127.147C180.136 132.597 181.339 132.998 180.381 129.182ZM499.353 162.526C490.461 158.294 483.315 149.566 476.291 134.36C474.378 130.218 472.709 125.868 472.583 124.693C472.33 122.34 474.465 121.298 502.853 109.92C513.797 105.534 517.648 103.525 518.557 101.727C519.219 100.417 521.625 98.2978 523.903 97.0174C527.406 95.0488 528.255 94.9006 529.405 96.0573C531.001 97.6639 541.556 120.646 544.845 129.675C546.097 133.113 547.511 135.925 547.987 135.925C549.164 135.925 549.091 128.563 547.902 127.374C546.156 125.629 541.853 112.925 541.853 109.517C541.853 105.908 543.277 102.024 546.16 97.7701C547.774 95.3884 547.814 94.7674 546.551 91.745C545.777 89.8917 543.562 86.6991 541.63 84.6504C538.663 81.5044 537.467 80.9254 533.935 80.9254C528.279 80.9254 523.552 83.401 524.358 85.9408C524.832 87.4342 523.92 88.5028 520.186 90.8265C516.772 92.9516 515.055 93.5078 514.172 92.7747C513.28 92.0351 510.064 93.4062 502.644 97.6893C467.808 117.798 468.304 117.545 466.542 116.082C464.364 114.274 461.397 106.976 462.436 105.983C463.44 105.023 480.89 94.9254 481.545 94.9254C481.767 94.9254 484.411 93.3504 487.421 91.4254C490.43 89.5004 493.076 87.9254 493.301 87.9254C493.526 87.9254 496.442 86.2978 499.781 84.3085C503.62 82.0218 505.853 80.03 505.853 78.8925C505.853 77.903 507.703 75.6285 509.964 73.8379C513.304 71.1923 514.405 70.7889 515.84 71.6849C517.169 72.5153 518.093 72.4454 519.584 71.4016C522.145 69.6073 529.767 66.9586 532.422 66.9399C533.559 66.9319 536.877 67.6343 539.795 68.5008C550.415 71.6547 559.112 83.4684 564.828 102.508C566.44 107.877 567.544 112.616 567.283 113.04C567.021 113.463 564.75 114.118 562.238 114.495C557.044 115.274 557.078 114.994 560.911 125.509C563.075 131.445 563.302 131.68 570.347 135.259C574.318 137.275 577.981 138.925 578.487 138.925C578.994 138.925 580.352 139.586 581.505 140.394C583.545 141.823 583.56 142.018 582.039 147.482C580.548 152.838 580.346 153.074 577.693 152.543C576.162 152.237 571.284 150.329 566.853 148.304L558.797 144.621L555.075 147.752C550.818 151.332 543.004 155.197 541.325 154.553C540.701 154.314 539.19 151.262 537.966 147.772C533.888 136.142 526.616 117.983 525.335 116.231C524.384 114.931 523.732 114.773 522.711 115.595C521.964 116.196 515.728 118.949 508.853 121.712C492.133 128.431 488.853 129.863 488.853 130.442C488.853 131.157 492.005 136.781 495.152 141.681C498.289 146.565 505.158 151.925 508.281 151.925C514.521 151.925 516.724 145.507 512.731 138.956L510.616 135.487L513.984 132.667C518.543 128.851 521.795 128.101 523.234 130.534C527.577 137.875 529.071 147.572 526.789 153.61C522.987 163.674 510.375 167.772 499.353 162.526ZM-84.2054 157.356C-88.3625 155.954 -93.0215 153.803 -94.5587 152.577L-97.3535 150.349L-94.5075 145.637C-92.9422 143.046 -91.1404 140.925 -90.5035 140.925C-89.8666 140.925 -86.9637 142.029 -84.0526 143.378C-73.799 148.128 -63.1409 147.647 -57.6803 142.186C-53.8901 138.396 -51.1469 132.66 -51.1469 128.524C-51.1469 123.431 -52.7513 123.277 -55.0312 128.152C-57.6033 133.651 -58.9118 135.203 -63.1646 137.795C-70.1169 142.033 -79.4194 140.004 -88.9845 132.164L-92.9632 128.903L-95.9175 136.664C-97.5423 140.933 -99.2137 145.55 -99.6317 146.925C-101.064 151.636 -101.854 151.886 -107.181 149.316C-109.929 147.99 -112.147 146.237 -112.147 145.39C-112.147 140.026 -94.429 99.8929 -84.0665 81.7849C-79.7077 74.168 -78.6558 72.9465 -76.9272 73.4951C-73.6746 74.5275 -68.1469 78.0385 -68.1469 79.0722C-68.1469 79.5943 -69.6574 82.3826 -71.5034 85.2685C-75.7421 91.8946 -82.3674 105.038 -81.7699 105.636C-79.8635 107.542 -73.0372 98.6837 -71.59 92.4254C-70.8355 89.1629 -64.5348 81.9254 -62.449 81.9254C-61.7384 81.9254 -58.469 84.0914 -55.1836 86.7388C-48.3684 92.2306 -39.3028 97.0178 -30.8107 99.6091L-24.9745 101.39L-25.646 106.908C-26.0153 109.942 -26.7045 112.828 -27.1775 113.321C-28.9446 115.16 -45.4687 108.875 -55.7734 102.444L-59.8998 99.8682L-61.9182 104.147C-64.674 109.989 -70.1552 115.371 -76.1485 118.121C-78.8995 119.383 -81.0024 120.868 -80.8215 121.42C-80.2648 123.122 -73.9733 126.925 -71.7146 126.925C-69.1099 126.925 -66.1469 122.293 -66.1469 118.22C-66.1469 113.289 -64.0057 110.007 -60.3336 109.309C-52.2356 107.769 -43.6519 111.687 -40.1591 118.516C-37.7645 123.198 -38.2122 135.384 -40.9952 141.273C-48.5579 157.277 -65.6191 163.628 -84.2054 157.356ZM453.502 95.4087C451.934 92.9265 450.885 90.2839 451.172 89.5364C451.62 88.369 458.802 83.3155 487.557 63.933C491.523 61.2598 492.654 59.9496 492.313 58.4254C491.984 56.957 492.93 55.6944 495.872 53.6754C498.076 52.1629 500.436 50.9277 501.116 50.9304C502.889 50.9374 512.134 64.7505 511.49 66.4287C510.519 68.9596 503.008 73.2989 501.609 72.1375C500.686 71.372 498.482 72.3594 493.352 75.8363C489.502 78.4451 479.936 84.9323 472.094 90.2524C464.251 95.5726 457.501 99.9246 457.094 99.9236C456.686 99.9226 455.07 97.8909 453.502 95.4087ZM-38.9161 82.8653C-51.1945 74.3488 -59.9321 68.9283 -61.0796 69.1158C-63.7063 69.5451 -72.3665 63.9401 -71.712 62.2344C-70.6549 59.4796 -62.9416 48.7839 -61.6565 48.2907C-59.4013 47.4253 -52.1469 52.8954 -52.1469 55.4613C-52.1469 57.2281 -49.763 59.3503 -41.3969 65.0312C-35.4844 69.0461 -30.1335 72.8022 -29.506 73.3782C-28.8785 73.9542 -24.491 77.0342 -19.756 80.2226C-15.021 83.4111 -11.1469 86.7142 -11.1469 87.5629C-11.1469 89.4855 -16.2893 96.8753 -17.6469 96.9036C-18.1969 96.9151 -27.7681 90.5978 -38.9161 82.8653ZM441.988 78.8414C438.732 75.0547 438.676 74.8449 440.261 72.4261C441.162 71.0507 442.226 69.9206 442.626 69.9146C443.858 69.8962 461.853 52.4264 461.853 51.2492C461.853 49.886 458.578 49.024 448.853 47.8278C444.728 47.3204 439.645 46.6332 437.557 46.3005L433.76 45.6958L434.057 40.0606L434.353 34.4254L438.103 34.1151L441.853 33.8047V24.0394C441.853 14.972 442.028 14.1097 444.3 11.9749C446.558 9.85421 447.431 9.70897 455.55 10.1037C464.746 10.5507 467.338 11.5441 473.173 16.8576C476.807 20.1678 478.631 24.1225 479.586 30.762L480.353 36.0985L482.756 34.012C484.078 32.8644 485.727 31.9254 486.421 31.9254C487.926 31.9254 495.853 41.6296 495.853 43.472C495.853 45.4741 488.042 51.2119 486.252 50.5249C485.191 50.1177 480.358 53.8542 471.185 62.1754C463.757 68.9129 455.581 76.3206 453.016 78.637C450.452 80.9534 447.678 82.8278 446.853 82.8024C446.028 82.777 443.839 80.9945 441.988 78.8414ZM466.853 33.9725C466.853 29.5625 465.002 26.3206 461.366 24.3625C456.282 21.6246 454.853 22.8244 454.853 29.8307V35.7987L458.103 36.202C466.466 37.2398 466.853 37.1411 466.853 33.9725ZM-20.8838 66.0004C-26.891 63.9531 -32.2757 60.4512 -37.1505 55.4218L-40.546 51.9185L-36.6435 47.9219C-34.4972 45.7239 -32.2699 43.9265 -31.694 43.9278C-31.1181 43.9288 -29.0719 45.3058 -27.1469 46.9871C-17.1559 55.7134 -7.18834 56.9187 -0.971359 50.1523C4.31903 44.3944 4.8509 38.8593 0.563828 34.1754C-2.6351 30.6804 -6.60038 31.2357 -11.2934 35.836L-15.2827 39.7466L-20.2148 37.101C-22.9275 35.6459 -25.1469 33.9748 -25.1469 33.3874C-25.1469 31.0621 -18.7047 23.7506 -14.4686 21.268C-5.1709 15.8192 5.82486 18.6682 12.7389 28.3174C15.8882 32.7126 16.2467 33.8802 16.269 39.8174C16.3002 48.1129 13.8562 53.7307 7.44478 60.1009C-0.235881 67.7321 -9.89843 69.7443 -20.8838 66.0004ZM-50.8595 44.6593C-53.1764 42.8807 -55.0889 40.7032 -55.1095 39.8205C-55.1549 37.8736 -41.6377 22.2305 -27.557 7.93478L-17.2241 -2.55585L-13.1855 1.38776C-10.9643 3.55673 -9.14693 5.74864 -9.14693 6.25867C-9.14693 6.76871 -14.9249 13.1372 -21.9868 20.4109C-29.0487 27.6845 -37.4244 36.8509 -40.5994 40.7806C-43.7745 44.7102 -46.434 47.9182 -46.5096 47.9093C-46.5851 47.9003 -48.5426 46.438 -50.8595 44.6593ZM33.2602 39.0953C32.7367 38.7269 30.0685 35.7285 27.3308 32.4323C24.593 29.136 21.9031 25.9294 21.3531 25.3065C20.8031 24.6836 15.8734 18.7169 10.3983 12.0473C2.8857 2.89561 0.0131211 0.057238 -1.31096 0.477478C-2.44449 0.837248 -3.87621 0.0831628 -5.35619 -1.65314C-6.6161 -3.13126 -8.28842 -5.00261 -9.07246 -5.81171C-10.1949 -6.96997 -10.2489 -7.68163 -9.32668 -9.15839C-8.34099 -10.7367 -8.53413 -11.2822 -10.5454 -12.6C-14.7176 -15.3337 -19.5632 -15.5355 -24.4324 -13.1784C-28.5902 -11.1657 -42.1469 1.28596 -42.1469 3.0921C-42.1469 3.55043 -42.8697 3.92542 -43.753 3.92542C-46.0346 3.92542 -53.1469 -1.93495 -53.1469 -3.81494C-53.1469 -6.25888 -37.2849 -21.2266 -31.1469 -24.5746C-26.3315 -27.2012 -24.6512 -27.5741 -17.6469 -27.5705C-10.7198 -27.5665 -9.10851 -27.2164 -5.63225 -24.9565C-3.42418 -23.5211 -1.02243 -21.6295 -0.295029 -20.753C0.579491 -19.6993 1.948 -19.3436 3.74477 -19.7029C6.05973 -20.1659 6.87427 -19.6515 9.24648 -16.2284C11.0616 -13.6091 11.8142 -11.5274 11.4082 -10.2484C10.8028 -8.34097 18.2599 1.6199 34.3717 20.4254C39.8005 26.7618 42.8531 30.9375 42.8531 32.0275C42.8531 33.3545 34.1814 39.7437 33.2602 39.0953ZM62.8531 25.2686C56.0854 22.6824 58.5039 11.9254 65.8531 11.9254C71.4713 11.9254 74.9409 18.7411 71.6031 23.2208C70.2528 25.0331 65.2814 26.1965 62.8531 25.2686ZM368.231 13.4357C365.16 11.5948 360.635 6.13744 350.481 -7.96899C342.986 -18.3826 336.853 -27.4004 336.853 -28.0086C336.853 -28.8597 340.915 -36.1209 342.373 -37.8768C342.511 -38.043 351.273 -37.4805 361.844 -36.6268C372.415 -35.7731 382.929 -35.0886 385.208 -35.1058L389.353 -35.137L385.353 -37.6742C383.153 -39.0697 374.725 -43.4431 366.623 -47.393C358.521 -51.3429 351.884 -55.0799 351.873 -55.6974C351.848 -57.0903 355.775 -66.0746 356.409 -66.0746C357.556 -66.0746 380.869 -54.6338 389.155 -50.0044C402.665 -42.4561 425.853 -26.9131 425.853 -25.4055C425.853 -23.8141 420.668 -16.1654 419.553 -16.1125C419.113 -16.0916 415.108 -18.5569 410.653 -21.5909C406.198 -24.6249 402.425 -26.98 402.27 -26.8244C402.114 -26.6688 403.644 -23.2025 405.67 -19.1214C408.889 -12.6363 409.353 -10.7915 409.353 -4.48077C409.353 2.09048 409.077 3.08137 406.279 6.53815C402.885 10.7313 396.998 14.4968 395.81 13.2341C395.391 12.7893 394.318 10.2378 393.425 7.56412L391.801 2.70282L394.43 0.266937C396.665 -1.80449 396.958 -2.70153 396.39 -5.72852C395.464 -10.6661 394.073 -14.0746 392.985 -14.0746C392.185 -14.0746 386.459 -4.76684 377.452 11.1754C375.976 13.7879 374.225 15.9212 373.561 15.916C372.897 15.911 370.498 14.7946 368.231 13.4357ZM375.853 -12.1889C378.328 -16.6342 380.491 -20.6414 380.66 -21.0938C380.829 -21.5463 378.579 -22.1643 375.66 -22.4673C363.667 -23.7123 355.853 -24.1262 355.853 -23.5164C355.853 -22.2208 369.381 -4.11662 370.353 -4.11172C370.903 -4.10872 373.378 -7.74371 375.853 -12.1889ZM35.5958 10.3847C34.0873 7.88726 32.8531 5.47683 32.8531 5.02817C32.8531 4.57951 35.1097 0.290687 37.8679 -4.50256C40.6261 -9.2958 42.6245 -13.6354 42.3089 -14.1461C41.1134 -16.0804 27.3034 -14.3114 24.1118 -11.8151C22.6044 -10.6361 18.2711 -14.9791 14.451 -21.4976L11.8716 -25.899L18.6124 -30.8783C33.1886 -41.6456 60.5825 -57.5309 62.4139 -56.2781C64.5184 -54.8385 67.8997 -47.7968 67.3373 -46.0249C66.7439 -44.1553 67.4488 -42.8887 84.2238 -15.6786C88.9356 -8.03588 92.5419 -1.38014 92.2378 -0.888123C91.2278 0.746107 84.4102 4.50997 80.3531 5.67322C78.1531 6.304 73.2031 7.55104 69.3531 8.44443C65.5031 9.33782 60.7781 10.4825 58.8531 10.9882C39.2886 16.1275 39.061 16.1216 35.5958 10.3847ZM65.6998 -4.13959C69.7404 -5.12686 73.2796 -6.16776 73.5646 -6.45273C74.2614 -7.14952 54.898 -38.0746 53.765 -38.0746C51.8663 -38.0746 38.7958 -28.9763 39.3669 -28.0522C39.6992 -27.5145 41.8571 -27.0678 44.1621 -27.0595C49.8163 -27.0392 55.757 -24.8434 57.9803 -21.9521C59.9467 -19.395 60.3934 -16.0592 58.9751 -14.5246C57.9282 -13.3918 51.8531 -2.41282 51.8531 -1.65363C51.8531 -1.01649 55.8669 -1.73713 65.6998 -4.13959ZM315.43 -12.7222C313.272 -13.5001 308.547 -16.6249 304.93 -19.6661C284.067 -37.2072 275.853 -44.4396 275.853 -45.2677C275.853 -45.7798 276.568 -48.3856 277.443 -51.0584C278.951 -55.6687 279.271 -55.9704 283.693 -56.9391C286.256 -57.5006 290.603 -58.2273 293.353 -58.5539C296.103 -58.8804 300.378 -59.5615 302.853 -60.0674C305.328 -60.5733 310.728 -61.5261 314.853 -62.1847C318.978 -62.8433 322.709 -63.691 323.143 -64.0685C323.811 -64.6487 316.93 -67.0742 303.353 -71.0442C301.703 -71.5267 296.864 -72.6764 292.6 -73.5992C288.335 -74.5219 284.619 -75.6438 284.342 -76.0922C284.065 -76.5406 284.329 -79.195 284.929 -81.991C285.855 -86.3103 286.364 -87.0746 288.315 -87.0746C294.911 -87.0746 341.552 -73.3471 343.684 -70.7783C345.093 -69.08 341.256 -60.4132 338.812 -59.774C337.774 -59.5025 336.659 -58.0175 336.302 -56.4301C335.949 -54.8596 334.575 -49.9746 333.248 -45.5746C331.921 -41.1746 329.261 -32.013 327.336 -25.2155C325.411 -18.4181 323.589 -12.4556 323.286 -11.9655C322.553 -10.7798 320.185 -11.0079 315.43 -12.7222ZM315.853 -31.4597C315.853 -32.8122 318.307 -41.5872 319.801 -45.5746C321.126 -49.1121 320.15 -49.8088 315.074 -48.9503C312.477 -48.5111 307.091 -47.6297 303.103 -46.9916C299.116 -46.3535 295.853 -45.4982 295.853 -45.0908C295.853 -43.8746 312.955 -30.0746 314.463 -30.0746C315.227 -30.0746 315.853 -30.6979 315.853 -31.4597ZM284.508 -14.9033C282.032 -17.6396 282.351 -23.6094 285.076 -25.5179C289.978 -28.9517 296.853 -25.5054 296.853 -19.614C296.853 -14.3122 288.074 -10.9624 284.508 -14.9033ZM119.353 -20.9646C103.735 -28.173 104.263 -48.8194 120.277 -57.0746C122.354 -58.1455 126.285 -58.5633 134.02 -58.5353C143.315 -58.5016 144.789 -58.7146 144.399 -60.0353C144.148 -60.8819 143.41 -63.7504 142.758 -66.4097C142.106 -69.0691 140.927 -71.4926 140.139 -71.7953C138.569 -72.3974 138.074 -72.2653 116.583 -65.515C108.46 -62.9633 101.218 -61.1044 100.489 -61.3841C99.0333 -61.9427 96.3219 -70.4061 97.1627 -71.7666C97.4517 -72.2341 102.338 -74.1433 108.021 -76.0092C113.703 -77.8752 119.253 -79.7483 120.353 -80.1717C124.373 -81.719 143.023 -86.0771 148.257 -86.6923C154.186 -87.389 154.049 -87.5186 155.39 -79.9391C155.752 -77.8885 155.603 -76.038 155.047 -75.6944C153.835 -74.9454 153.93 -74.5438 162.235 -45.3328C164.775 -36.3998 166.853 -28.2135 166.853 -27.1409C166.853 -25.6755 165.672 -24.8466 162.103 -23.806C159.491 -23.0443 156.842 -22.5966 156.217 -22.8111C155.592 -23.0256 154.345 -25.8242 153.446 -29.0303C151.71 -35.2151 146.579 -41.0963 139.91 -44.545C130.329 -49.4997 118.087 -43.4415 121.692 -35.5295C122.86 -32.9655 123.504 -32.7621 130.83 -32.6457C134.922 -32.5807 135.454 -32.2743 137.031 -29.0746C139.837 -23.3833 139.416 -21.5597 134.987 -20.2329C129.464 -18.578 123.967 -18.8353 119.353 -20.9646ZM174.475 -26.8769C174.125 -27.4444 173.596 -30.0835 173.3 -32.7416C173.005 -35.3997 172.353 -40.0496 171.851 -43.0746C171.349 -46.0996 170.164 -54.6496 169.218 -62.0746C167.835 -72.9217 167.113 -75.8899 165.542 -77.179C164.232 -78.2545 163.425 -80.4726 163.095 -83.9063C162.515 -89.9485 163.125 -90.3681 174.078 -91.4567C180.517 -92.0967 180.822 -92.0284 181.273 -89.8498C182.458 -84.1303 182.432 -80.97 181.192 -79.9412C180.466 -79.3387 180.092 -77.8847 180.361 -76.7102C180.829 -74.6648 182.38 -63.2601 185.406 -39.6028C186.26 -32.9295 186.449 -28.2709 185.89 -27.7117C184.525 -26.346 175.224 -25.6658 174.475 -26.8769ZM253.164 -27.7059C252.82 -28.6031 253.048 -32.0906 253.671 -35.4559C254.293 -38.8211 255.5 -46.9746 256.353 -53.5746C257.205 -60.1746 258.362 -68.1528 258.924 -71.3039C259.629 -75.2584 259.621 -77.6388 258.899 -78.9881C257.342 -81.8973 257.611 -89.6894 259.327 -91.4056C260.138 -92.2163 261.275 -94.9944 261.854 -97.5791C263.191 -103.546 264.941 -106.879 268.514 -110.266C275.712 -117.088 286.883 -118.785 300.976 -115.196C309.044 -113.142 318.074 -109.765 321.607 -107.481L323.861 -106.023L321.237 -100.799C319.793 -97.9256 318.483 -95.4289 318.326 -95.2508C318.168 -95.0728 316.76 -95.5768 315.196 -96.371C306.913 -100.578 296.167 -103.47 288.628 -103.522C281.326 -103.572 280.742 -103.41 277.988 -100.575C276.316 -98.8526 274.789 -95.9438 274.404 -93.7466C273.816 -90.3895 273.996 -89.85 275.868 -89.3604C277.819 -88.8503 277.944 -88.3598 277.314 -83.6883C276.511 -77.7309 276.216 -77.0746 274.339 -77.0746C273.529 -77.0746 272.745 -75.712 272.469 -73.8246C272.208 -72.0371 271.531 -67.4246 270.966 -63.5746C270.4 -59.7246 269.677 -54.5496 269.359 -52.0746C269.041 -49.5996 268.351 -44.8746 267.827 -41.5746C267.302 -38.2746 266.616 -33.4371 266.302 -30.8246L265.731 -26.0746H259.76C255.163 -26.0746 253.646 -26.4495 253.164 -27.7059ZM233.788 -30.7769C233.752 -31.7656 233.772 -39.7746 233.832 -48.5746L233.942 -64.5746L230.647 -70.041C226.376 -77.1285 222.021 -80.0746 215.816 -80.0746C212.738 -80.0746 210.294 -79.4423 208.849 -78.2727L206.624 -76.4709L211.904 -75.2522C219.353 -73.5327 223.307 -70.7672 225.752 -65.5664C231.099 -54.1915 225.486 -44.1517 211.218 -39.5689C208.394 -38.6618 204.794 -38.0669 203.218 -38.2471C200.422 -38.5667 200.353 -38.7182 200.353 -44.5298V-50.485L204.136 -51.2709C210.812 -52.6582 213.853 -54.7766 213.853 -58.0412C213.853 -61.8416 213.082 -62.214 205.077 -62.2823C198.987 -62.3343 198.046 -62.6287 195.103 -65.4033C191.042 -69.2316 190.857 -73.0931 194.379 -80.5375C199.21 -90.7505 209.632 -95.3291 221.685 -92.5339C225.177 -91.7241 228.993 -90.3894 230.166 -89.568C233.127 -87.4942 233.674 -87.6718 234.037 -90.8246C234.349 -93.5399 234.435 -93.5714 240.853 -93.3251C244.428 -93.1878 247.916 -92.8644 248.603 -92.6064C250.484 -91.9005 250.28 -81.4523 248.37 -80.7196C247.124 -80.2413 246.845 -76.1169 246.62 -54.8626L246.353 -29.5746L240.103 -29.2769C234.663 -29.0177 233.845 -29.2121 233.788 -30.7769Z" fill="white"/>
</g>
<defs>
<clipPath id="clip0_142_51">
<path d="M0 200C0 89.5431 89.5431 0 200 0H286C341.228 0 386 44.7715 386 100V331H0V200Z" fill="white"/>
</clipPath>
</defs>
</svg>
