<svg width="179" height="119" viewBox="0 0 179 119" fill="none" xmlns="http://www.w3.org/2000/svg">
<path d="M85.0038 75.1325C81.4751 77.4687 90.2026 77.6438 88.6038 81.9813C88.7791 86.4295 83.5413 87.268 78.9318 87.3326C74.6882 89.9731 81.2489 88.8325 83.4782 91.0326C88.1729 90.4107 89.7528 95.8342 82.5038 96.0326C82.9852 98.8047 90.4192 99.2597 86.4294 103.333C81.0907 101.61 78.2962 106.173 81.3038 109.207C83.7142 111.239 80.1853 116.547 77.7038 114.233C76.245 109.481 73.9668 114.331 71.8294 115.533C69.6569 118.528 69.4346 119.19 66.7038 116.733C61.6594 114.26 59.0231 118.308 63.0038 113.258C62.5667 109.662 57.2677 110.928 55.9294 108.233C52.4371 109.357 50.6405 111.729 48.3038 111.833C46.6378 109.274 41.6143 109.734 42.2038 110.633C39.9947 109.362 37.2654 110.12 34.9038 109.658C33.9264 106.459 31.8393 111.352 30.2294 106.933C28.1415 105.279 25.7075 103.971 25.1038 100.833C22.8907 105.191 19.7611 101.952 20.2038 97.2326C16.6327 95.6689 16.8201 94.2264 19.0038 91.3582C20.4593 84.239 15.8854 83.7269 17.8038 78.3094C19.3755 75.4042 17.2391 72.9011 14.1038 71.5326C10.1356 68.2477 9.42633 70.9957 4.755 71.5326C-1.53834 72.1023 -0.535 68.1864 1.80379 65.6582C5.85453 67.3864 2.27069 65.0942 5.50379 62.9325C5.69848 64.2702 11.0569 60.6071 12.6782 59.3326C14.046 56.6337 15.2181 53.7391 17.5782 52.0326C19.8471 49.707 12.0072 48.3628 17.5782 49.4325C17.4008 47.6275 16.6366 44.3206 17.5782 42.1325C15.2337 37.9581 19.5821 42.9378 20.2038 38.4325C24.739 39.2758 22.5979 31.915 27.2782 32.3326C30.0424 29.9825 27.0021 27.2274 28.8038 27.5326C29.5679 25.8587 33.5832 24.9832 32.4038 23.8326C35.063 20.2493 35.2243 21.7468 36.1038 16.5326C40.087 16.5755 37.1766 13.6078 41.0038 11.6325C42.6343 7.00305 43.8365 9.91227 43.4038 3.13256C46.177 1.08966 46.4414 -0.614218 47.1038 1.83255C50.7046 -0.536808 48.7894 2.0307 54.827 1.83255C57.8422 0.906722 64.5612 8.28577 65.5038 2.15817C70.9648 -1.23145 70.2437 9.43128 75.2038 4.45817C78.4205 2.69966 79.2247 -1.47134 86.2038 0.532557C84.4168 2.89812 89.3638 3.36111 88.3782 5.43255C93.3239 6.37587 92.1059 6.1233 98.5038 6.73255C101.5 8.68634 98.947 11.3932 104.504 9.23255C105.982 10.5416 108.74 6.47274 110.378 4.33256C113.526 1.28238 118.127 6.45819 121.378 3.13256C127.166 2.67759 131.802 3.3739 130.204 10.3045C127.894 15.4888 132.108 10.6938 133.578 9.23255C136.92 7.30206 131.543 3.5327 133.904 1.83255C135.885 -1.98566 139.052 6.00754 142.504 5.30694C143.665 10.3549 144.52 6.31657 146.104 4.33256C147.377 1.69957 151.631 5.97436 152.204 8.03256C157.036 7.05755 155.716 7.12146 158.204 5.43255C160.96 3.55028 162.551 5.98103 164.404 2.15817C166.783 0.200127 173.466 0.51889 171.804 2.80694C177.275 2.86834 177.101 9.71769 170.532 6.73255C171.028 6.68515 167.286 10.81 171.804 11.6325C169.388 13.7165 167.321 16.1495 168.104 21.4326C164.972 23.3009 171.349 25.3389 171.804 27.5326C171.726 32.0442 177.079 31.1239 175.404 37.2326C170.698 39.2607 183.571 42.6313 174.006 42.1325C172.329 43.0826 176.672 46.8008 176.604 49.4325C181.108 50.5896 177.364 53.8763 175.404 56.8326C178.425 60.0358 176.723 59.9116 173.004 61.7326C170.71 64.2726 172.19 58.1849 168.104 58.1325C166.217 56.3827 162.494 62.0859 165.704 60.5326C168.289 61.8516 169.965 60.1299 171.804 63.9069C167.228 63.8966 167.223 67.5143 167.129 69.0326C172.549 72.0596 171.572 72.0282 166.904 73.9325C165.91 80.2042 160.386 73.7037 157.655 73.9325C157.195 69.9247 156.985 77.2649 155.904 73.9325C156.297 68.7053 151.062 71.0268 152.204 67.8326C146.312 70.7802 148.32 65.1972 145.388 65.9716C144.721 63.3131 139.836 67.1749 138.804 66.6325C134.519 67.2432 133.608 69.0913 135.104 72.7326C131.667 76.5003 132.865 71.8399 126.532 72.7326C128.466 79.8355 123.642 78.5026 122.678 80.0326C123.085 75.4141 122.136 68.8362 125.304 70.5582C127.016 65.614 125.219 66.0069 120.955 66.6325C117.067 67.2991 117.593 67.4681 113.104 69.0326C113.144 72.5618 110.289 77.9271 108.204 72.9582C103.621 69.6689 99.571 73.0695 94.7318 72.7326C91.0947 71.0312 86.6904 71.6058 85.0038 74.9069V75.1325Z" fill="#FFB900"/>
<path d="M65.7693 39.0777V33.3002H59.0901C59.8248 34.4134 60.3926 35.5043 60.7933 36.573C61.016 37.2187 61.1941 37.8643 61.3276 38.51C61.3944 38.4877 61.4612 38.4432 61.528 38.3764C61.951 38.1092 62.4631 37.9756 63.0642 37.9756C63.9325 37.9979 64.8342 38.3653 65.7693 39.0777ZM65.7693 45.2893C65.7025 44.1316 65.2461 43.4971 64.4001 43.3858C63.8657 43.3412 63.3648 43.4971 62.8972 43.8533C62.4297 44.1873 61.862 44.7661 61.1941 45.5899L60.1254 46.9925C59.4797 47.794 58.7784 48.4174 58.0215 48.8627C57.2645 49.2857 56.3628 49.4972 55.3164 49.4972C54.8711 49.4972 54.3145 49.3636 53.6466 49.0964C52.9787 48.807 52.2774 48.3729 51.5427 47.794L50.0733 46.5584L52.0102 43.0852C52.7227 43.6418 53.4128 43.9201 54.0808 43.9201C55.0381 43.9201 55.706 43.5305 56.0845 42.7512C56.463 41.9497 56.6522 40.9924 56.6522 39.8792C56.6522 39.1 56.5409 38.2651 56.3183 37.3745C56.0956 36.6175 55.7839 35.9496 55.3832 35.3708C54.604 34.1908 53.3572 33.5006 51.6429 33.3002H50.4406V29.6267H72.3149V51H65.7693V45.2893Z" fill="#063C2C"/>
<path d="M74.6395 29.6267H81.1851V51H74.6395V29.6267Z" fill="#063C2C"/>
<path d="M86.1819 43.6863C85.8257 43.575 85.514 43.408 85.2469 43.1854C84.5567 42.6956 84.0891 42.0833 83.8442 41.3486C83.6216 40.6139 83.5103 39.946 83.5103 39.3449C83.5103 38.4988 83.6884 37.7307 84.0446 37.0406C84.4231 36.3281 84.924 35.727 85.5474 35.2372C86.1708 34.7474 86.8944 34.3689 87.7182 34.1017C88.5419 33.8346 89.4436 33.6898 90.4232 33.6676C91.4474 33.6453 92.516 33.8012 93.6292 34.1351C94.7424 34.4468 95.6886 34.9478 96.4678 35.6379C97.2693 36.3058 97.8816 37.1185 98.3046 38.0758C98.7499 39.0332 98.9725 40.0573 98.9725 41.1482C98.9725 42.9293 98.3825 44.4656 97.2026 45.7569C96.1339 46.9146 94.6867 47.7606 92.8611 48.2949C93.9075 48.7847 94.9205 49.2857 95.9001 49.7978C97.4363 50.6215 98.9057 51.5232 100.308 52.5028L101.644 53.5047L99.0059 56.8443C98.3825 56.399 97.7592 55.976 97.1358 55.5752C96.0226 54.885 94.8426 54.2171 93.5958 53.5715C92.349 52.9481 91.0021 52.347 89.5549 51.7681C88.13 51.1892 86.1152 50.4657 83.5103 49.5974L83.4769 44.588C84.1893 44.8329 84.8684 45.011 85.514 45.1223C86.1819 45.2337 86.8499 45.2893 87.5178 45.2893C89.3434 45.2893 90.7906 44.7884 91.8592 43.7865C92.9502 42.7846 93.4956 41.6603 93.4956 40.4135C93.4956 39.6343 93.2841 39.0666 92.8611 38.7103C92.5271 38.4209 92.1375 38.2539 91.6923 38.2094C91.8926 38.6992 91.9928 39.2335 91.9928 39.8124C91.9928 40.9701 91.5809 41.9609 90.7572 42.7846C89.9334 43.5861 88.9427 43.9869 87.7849 43.9869C87.2061 43.9869 86.6718 43.8867 86.1819 43.6863ZM98.9725 33.3002H83.5103V29.6267H94.7647V29.1925C94.7647 28.9476 94.6867 28.7584 94.5309 28.6248C94.3973 28.469 94.1413 28.3688 93.7628 28.3243C93.2953 28.2575 92.7275 28.2129 92.0596 28.1907L89.2878 28.0237C88.13 28.0014 87.0948 27.9346 86.1819 27.8233C85.2691 27.6897 84.4008 27.4337 83.5771 27.0552C82.7533 26.6545 82.0854 26.0756 81.5733 25.3186C81.128 24.5394 80.9054 23.7379 80.9054 22.9141C80.9054 22.3575 80.9945 21.8121 81.1726 21.2777C81.3284 20.7211 81.5733 20.0421 81.9073 19.2406L85.5808 20.4762C84.9129 22.5023 85.848 23.6154 88.3861 23.8158L91.926 23.9828C93.952 24.0273 95.4994 24.3279 96.568 24.8845C97.0578 25.1071 97.4252 25.3632 97.6701 25.6526C98.5161 26.4764 98.9503 27.5561 98.9725 28.892C98.9725 29.1369 98.9725 30.6063 98.9725 33.3002Z" fill="#063C2C"/>
<path d="M101.284 29.6267H128.569V33.6342H108.832C109.789 34.3466 110.58 35.1815 111.203 36.1389C111.826 37.0962 112.283 38.009 112.572 38.8773L107.329 41.549C110.157 42.5063 112.261 43.7086 113.641 45.1557V35.0702C113.953 35.0479 114.342 35.0368 114.81 35.0368C115.3 35.0145 115.734 35.0034 116.112 35.0034C121.522 35.0479 125.162 36.0498 127.033 38.009C127.567 38.5434 127.968 39.189 128.235 39.946C128.502 40.6807 128.636 41.3931 128.636 42.0833C128.636 42.818 128.524 43.4637 128.302 44.0203C128.079 44.5546 127.79 44.9999 127.433 45.3561C127.099 45.6901 126.71 45.9461 126.264 46.1242C125.841 46.2801 125.418 46.358 124.995 46.358C124.35 46.358 123.771 46.2912 123.259 46.1576C122.769 46.0018 122.279 45.7012 121.789 45.2559C121.322 44.7439 121.088 44.0982 121.088 43.319C121.088 42.7401 121.277 42.2169 121.656 41.7494C122.057 41.2596 122.669 41.0147 123.493 41.0147C123.626 41.0147 123.76 41.0258 123.893 41.0481C124.027 41.0703 124.161 41.1037 124.294 41.1482V41.0814C124.005 40.2799 123.515 39.7122 122.825 39.3783C122.157 39.0443 121.333 38.8773 120.353 38.8773H120.186V51H114.042C111.058 47.5046 106.806 45.3338 101.284 44.4878V39.8792L107.162 37.2743C105.96 35.3819 104.246 34.0572 102.019 33.3002H101.284V29.6267Z" fill="#063C2C"/>
<path d="M49.6383 57.8097C49.6383 57.7687 49.6295 57.7248 49.6119 57.678C49.5593 57.5316 49.5329 57.3795 49.5329 57.2214C49.5329 56.9521 49.5973 56.7092 49.7261 56.4926C49.8607 56.2702 50.048 56.0858 50.288 55.9394C50.528 55.7872 50.8119 55.6731 51.1398 55.597C51.4676 55.515 51.8363 55.4741 52.2461 55.4741C52.9661 55.4741 53.6949 55.5911 54.4325 55.8253C55.053 56.0185 55.6939 56.2994 56.3554 56.6682L56.0305 57.8712C55.451 57.5668 54.9183 57.3502 54.4325 57.2214C53.8354 57.0634 53.2939 56.9843 52.8081 56.9843C52.3164 56.9843 51.9359 57.0516 51.6666 57.1863C51.4032 57.3209 51.2715 57.5024 51.2715 57.7307C51.2715 57.7834 51.3007 57.8682 51.3593 57.9853V64H49.6383V57.8097Z" fill="#066C44"/>
<path d="M56.0009 60.8653V59.3463H54.2448C54.438 59.639 54.5872 59.9258 54.6926 60.2068C54.7511 60.3766 54.798 60.5463 54.8331 60.7161C54.8506 60.7102 54.8682 60.6985 54.8858 60.6809C54.997 60.6107 55.1316 60.5756 55.2897 60.5756C55.518 60.5814 55.755 60.678 56.0009 60.8653ZM56.0009 62.4985C55.9833 62.1941 55.8633 62.0273 55.6409 61.998C55.5004 61.9863 55.3687 62.0273 55.2458 62.121C55.1228 62.2088 54.9736 62.361 54.798 62.5775L54.517 62.9463C54.3472 63.1571 54.1628 63.321 53.9638 63.438C53.7648 63.5493 53.5277 63.6049 53.2526 63.6049C53.1355 63.6049 52.9892 63.5698 52.8136 63.4995C52.6379 63.4234 52.4535 63.3093 52.2604 63.1571L51.874 62.8322L52.3833 61.919C52.5706 62.0653 52.7521 62.1385 52.9277 62.1385C53.1794 62.1385 53.355 62.0361 53.4545 61.8312C53.554 61.6205 53.6038 61.3688 53.6038 61.0761C53.6038 60.8712 53.5745 60.6517 53.516 60.4175C53.4575 60.2185 53.3755 60.0429 53.2701 59.8907C53.0653 59.5804 52.7375 59.399 52.2867 59.3463H51.9706V58.3804H57.7219V64H56.0009V62.4985Z" fill="#066C44"/>
<path d="M61.2658 62.0858V60.7424C61.137 60.8009 61.0024 60.8653 60.8619 60.9356C60.5458 61.0995 60.2473 61.2575 59.9663 61.4097C59.9721 61.4097 59.978 61.4127 59.9838 61.4185C60.259 61.5122 60.5487 61.641 60.8531 61.8049C60.9936 61.8868 61.1312 61.9805 61.2658 62.0858ZM58.3331 58.3804H62.978V64H61.2658C60.9965 63.4029 60.6043 62.9522 60.0892 62.6478C59.5741 62.3434 58.9887 62.2263 58.3331 62.2966V60.9707C58.4911 60.8712 58.6814 60.757 58.9038 60.6283C59.1673 60.4819 59.4395 60.3385 59.7204 60.198C60.0014 60.0517 60.2707 59.917 60.5282 59.7941C60.7917 59.6712 61.0082 59.5746 61.178 59.5043V59.3463H58.3331V58.3804ZM59.6765 64.2634C59.4658 64.2634 59.2843 64.1873 59.1321 64.0351C58.9858 63.8888 58.9126 63.7132 58.9126 63.5083C58.9126 63.2976 58.9858 63.119 59.1321 62.9727C59.2843 62.8205 59.4658 62.7444 59.6765 62.7444C59.8873 62.7444 60.0658 62.8205 60.2121 62.9727C60.3643 63.119 60.4404 63.2976 60.4404 63.5083C60.4404 63.7132 60.3643 63.8888 60.2121 64.0351C60.0658 64.1873 59.8873 64.2634 59.6765 64.2634Z" fill="#066C44"/>
<path d="M63.5894 58.3804H65.3104V64H63.5894V58.3804Z" fill="#066C44"/>
<path d="M65.9218 58.3804H73.6311V59.3463H69.5833C69.7882 59.5219 70.0925 59.6419 70.4965 59.7063C70.9062 59.7707 71.2106 59.8029 71.4096 59.8029C71.8662 59.8029 72.2643 59.7385 72.6038 59.6097L73.6311 60.4614C73.397 60.7483 73.2301 61.038 73.1306 61.3307C73.0311 61.6175 72.9814 61.9102 72.9814 62.2088C72.9814 62.4897 73.0165 62.7766 73.0867 63.0693C73.1628 63.3561 73.2389 63.5873 73.315 63.7629L72.1384 64.0702C71.9979 63.7073 71.8838 63.3678 71.796 63.0517C71.714 62.7356 71.673 62.4253 71.673 62.121C71.673 61.8575 71.7111 61.5971 71.7872 61.3395C71.834 61.158 71.9101 60.9707 72.0155 60.7775C71.3365 60.8595 70.6662 60.7805 70.0047 60.5405C69.6125 60.3648 69.3374 60.1248 69.1794 59.8204C69.1208 59.9434 69.074 60.0605 69.0389 60.1717C68.9979 60.318 68.9774 60.4585 68.9774 60.5931C68.9774 60.8273 69.0799 60.9912 69.2847 61.0849C69.4955 61.1727 69.7121 61.1902 69.9345 61.1375C70.1628 61.079 70.3969 60.9619 70.6369 60.7863L70.7862 60.9444C71.0145 61.161 71.1813 61.3892 71.2867 61.6292C71.3979 61.8692 71.4535 62.1063 71.4535 62.3405C71.4535 62.5629 71.4067 62.7766 71.313 62.9815C71.2252 63.1863 71.0965 63.3649 70.9267 63.5171C70.7628 63.6693 70.5608 63.7922 70.3208 63.8859C70.0867 63.9737 69.8204 64.0176 69.5218 64.0176C69.1238 64.0176 68.7228 63.959 68.3189 63.8419C67.8272 63.6488 67.4145 63.3619 67.0808 62.9815C66.753 62.5951 66.4896 62.1414 66.2906 61.6205C66.0974 61.0936 65.9803 60.5873 65.9393 60.1014L67.2037 59.759C67.2447 60.3795 67.3354 60.9034 67.4759 61.3307C67.6164 61.7522 67.795 62.0946 68.0116 62.358C68.1579 62.5395 68.3247 62.68 68.512 62.7795C68.7286 62.879 68.9657 62.9288 69.2233 62.9288C69.4925 62.9288 69.7238 62.8615 69.9169 62.7268C70.1101 62.5863 70.2067 62.399 70.2067 62.1649V62.121C70.0018 62.1853 69.8086 62.2234 69.6272 62.2351C69.2467 62.2468 68.9364 62.2 68.6964 62.0946C68.4564 61.9892 68.2662 61.8488 68.1257 61.6731C67.9852 61.4917 67.8798 61.3102 67.8096 61.1288C67.7452 60.9414 67.713 60.7453 67.713 60.5405C67.713 60.3063 67.7569 60.0634 67.8447 59.8117C67.9033 59.6243 67.9911 59.4692 68.1081 59.3463H65.9218V58.3804Z" fill="#066C44"/>
<path d="M78.1816 60.7073C78.0294 60.3736 77.8069 60.1102 77.5143 59.917C77.2274 59.7356 76.9757 59.6448 76.7591 59.6448C76.5952 59.6448 76.4401 59.6653 76.2938 59.7063C76.1533 59.7473 76.0303 59.8058 75.925 59.8819C75.8196 59.9522 75.7377 60.0429 75.6791 60.1541C75.6323 60.2361 75.603 60.3268 75.5913 60.4263C75.644 60.4029 75.6967 60.3824 75.7494 60.3648C75.9133 60.3063 76.0947 60.277 76.2938 60.277C76.5513 60.277 76.7474 60.2975 76.8821 60.3385C77.1689 60.4146 77.3825 60.5405 77.523 60.7161C77.6635 60.8858 77.7543 61.0468 77.7952 61.199C77.8421 61.3453 77.8655 61.5034 77.8655 61.6731C77.8655 62.0068 77.7923 62.3522 77.646 62.7093C77.4996 63.0663 77.3064 63.3824 77.0664 63.6576L76.0303 62.999C76.2645 62.7532 76.4255 62.5132 76.5133 62.279C76.6011 62.0449 76.566 61.8107 76.4079 61.5766C75.9103 61.1551 75.4216 61.281 74.9416 61.9541C74.7074 61.72 74.5318 61.4566 74.4147 61.1639C74.3035 60.8712 74.2479 60.599 74.2479 60.3473C74.2479 60.119 74.2918 59.8936 74.3796 59.6712C74.4674 59.4429 74.602 59.2409 74.7835 59.0653C74.965 58.8897 75.1903 58.7463 75.4596 58.6351C75.7289 58.5238 76.045 58.4682 76.4079 58.4682C77.2333 58.4741 77.8245 58.6673 78.1816 59.0478V58.3804H79.9026V64H78.1816V60.7073Z" fill="#066C44"/>
<path d="M83.0099 60.6458C83.0977 60.5814 83.1943 60.5112 83.2997 60.4351C83.4168 60.3473 83.5221 60.2507 83.6158 60.1453C83.7153 60.0341 83.7651 59.8995 83.7651 59.7414C83.7651 59.6887 83.7533 59.6331 83.7299 59.5746C83.7124 59.5102 83.6773 59.4517 83.6246 59.399C83.5895 59.3697 83.5485 59.3463 83.5016 59.3287C83.449 59.3112 83.3933 59.3024 83.3348 59.3024C83.206 59.3024 83.086 59.3229 82.9748 59.3639C82.8694 59.399 82.7729 59.4458 82.6851 59.5043C82.6031 59.5629 82.5328 59.6273 82.4743 59.6975H82.4655C82.5065 59.6975 82.5738 59.7122 82.6675 59.7414C82.7846 59.7824 82.8841 59.8468 82.966 59.9346C83.0655 60.0341 83.1153 60.1629 83.1153 60.3209C83.1153 60.4439 83.0802 60.5522 83.0099 60.6458ZM85.5212 60.5756H85.2226V59.8907H85.5387C85.8022 59.8907 85.9339 59.7883 85.9339 59.5834C85.9339 59.4956 85.9017 59.44 85.8373 59.4165L85.7758 59.399C85.6763 59.3814 85.5739 59.3931 85.4685 59.4341C85.3631 59.4751 85.2695 59.5365 85.1875 59.6185C85.1056 59.6946 85.0382 59.7941 84.9856 59.917C84.9387 60.04 84.9153 60.1775 84.9153 60.3297C84.9153 60.4644 84.9358 60.5961 84.9768 60.7248C85.0178 60.8478 85.0734 60.9561 85.1436 61.0497C85.2139 61.1375 85.2987 61.2078 85.3982 61.2605C85.4275 61.2663 85.4626 61.2692 85.5036 61.2692C85.65 61.2692 85.7553 61.24 85.8197 61.1814C85.89 61.1229 85.9251 61.0409 85.9251 60.9356C85.9251 60.8127 85.8841 60.7219 85.8022 60.6634H85.7934L85.688 60.6019C85.6529 60.5844 85.5973 60.5756 85.5212 60.5756ZM82.7465 60.8478C82.6353 60.9005 82.5153 60.9268 82.3865 60.9268C82.2343 60.9268 82.0997 60.9063 81.9826 60.8653C81.807 60.8127 81.6577 60.7278 81.5348 60.6107C81.3767 60.4644 81.2977 60.2595 81.2977 59.9961C81.2977 59.8087 81.3446 59.6214 81.4382 59.4341C81.5319 59.2409 81.6577 59.0682 81.8158 58.916C81.9797 58.7639 82.1728 58.6409 82.3953 58.5473C82.6177 58.4478 82.8607 58.398 83.1241 58.398C83.3699 58.398 83.6099 58.439 83.8441 58.5209C83.9377 58.5619 84.0373 58.6058 84.1426 58.6526C84.3007 58.7229 84.4265 58.8136 84.5202 58.9248C84.6373 58.8078 84.7836 58.7112 84.9592 58.6351C85.1817 58.5356 85.407 58.4858 85.6353 58.4858C85.8285 58.4858 86.007 58.5063 86.1709 58.5473C86.2704 58.5824 86.3465 58.6087 86.3992 58.6263C86.5397 58.7024 86.6568 58.7843 86.7505 58.8721C86.8441 58.9541 86.9144 59.0536 86.9612 59.1707C87.008 59.2819 87.0314 59.3961 87.0314 59.5131C87.0314 59.7004 86.9817 59.8673 86.8822 60.0136C86.7885 60.16 86.6773 60.2653 86.5485 60.3297C86.6773 60.3941 86.7914 60.4995 86.8909 60.6458C86.9905 60.7863 87.0402 60.9502 87.0402 61.1375C87.0402 61.2897 87.0051 61.4361 86.9348 61.5766L87.207 61.8136C86.9436 62.0361 86.7622 62.2673 86.6627 62.5073C86.5631 62.7414 86.5134 62.9873 86.5134 63.2449C86.5134 63.4615 86.5368 63.6839 86.5836 63.9122C86.6363 64.1405 86.7329 64.4215 86.8734 64.7551L86.0568 65.0712L85.8461 65.1503L85.7495 64.9659C85.6148 64.6615 85.5153 64.3629 85.4509 64.0702C85.3924 63.7834 85.3631 63.4995 85.3631 63.2185C85.3631 63.1424 85.369 63.0546 85.3807 62.9551C85.3924 62.8497 85.407 62.7444 85.4246 62.639C85.448 62.5278 85.4802 62.4195 85.5212 62.3141C85.5504 62.2322 85.5739 62.1707 85.5914 62.1297C85.4919 62.118 85.3778 62.0975 85.249 62.0683C85.0382 61.9922 84.8392 61.881 84.6519 61.7346C84.4353 61.559 84.2773 61.3512 84.1777 61.1112C84.1836 61.1053 84.1748 61.1083 84.1514 61.12C83.8763 61.3424 83.6626 61.5239 83.5104 61.6644C83.3582 61.799 83.2821 61.9453 83.2821 62.1034C83.2821 62.2029 83.3465 62.2702 83.4753 62.3054C83.6099 62.3405 83.7563 62.3171 83.9143 62.2351C84.0724 62.1473 84.2158 62.0624 84.3446 61.9805L84.4851 61.8839L84.6519 62.0683C84.728 62.1502 84.8012 62.238 84.8714 62.3317C84.9475 62.4195 85.0148 62.5132 85.0734 62.6127C85.1378 62.7122 85.1846 62.8205 85.2139 62.9375C85.249 63.0546 85.2665 63.1863 85.2665 63.3327C85.2665 63.5317 85.2256 63.7219 85.1436 63.9034C85.0675 64.0849 84.9504 64.2459 84.7924 64.3863C84.6402 64.5268 84.4499 64.6381 84.2216 64.72C83.9934 64.8078 83.727 64.8517 83.4226 64.8517C83.089 64.8517 82.7846 64.8078 82.5094 64.72C82.3221 64.6439 82.1436 64.5561 81.9738 64.4566C81.6402 64.2576 81.3592 63.9883 81.1309 63.6488C80.9084 63.3034 80.7328 62.9054 80.6041 62.4546C80.4811 61.998 80.405 61.5034 80.3758 60.9707L81.2538 60.8653L81.5524 60.839C81.5758 61.2488 81.6197 61.6292 81.6841 61.9805C81.7543 62.3317 81.8568 62.6536 81.9914 62.9463C82.1319 63.239 82.3192 63.4819 82.5533 63.6751C82.6294 63.7454 82.7172 63.7951 82.8168 63.8244C82.9163 63.8595 83.0304 63.8771 83.1592 63.8771C83.4343 63.8771 83.6451 63.8215 83.7914 63.7102C83.9436 63.599 84.0197 63.4585 84.0197 63.2888C84.0197 63.2478 84.0168 63.2156 84.0109 63.1922C83.9816 63.2039 83.9348 63.2156 83.8704 63.2273C83.7358 63.2566 83.6099 63.2712 83.4929 63.2712C83.288 63.2712 83.1094 63.239 82.9572 63.1746L82.9133 63.1571C82.8372 63.1395 82.7641 63.1161 82.6938 63.0868C82.5475 63.0224 82.4246 62.9405 82.325 62.841C82.2255 62.7356 82.1494 62.6185 82.0967 62.4897C82.0441 62.3551 82.0177 62.2146 82.0177 62.0683C82.0177 61.9161 82.0382 61.7785 82.0792 61.6556C82.1202 61.5327 82.1904 61.4097 82.2899 61.2868C82.3894 61.1639 82.5211 61.0351 82.6851 60.9005C82.7026 60.8829 82.7231 60.8653 82.7465 60.8478Z" fill="#066C44"/>
<path d="M90.0996 62.2263H87.7552V61.1727H90.0996V62.2263Z" fill="#066C44"/>
<path d="M93.8877 59.0829C94.3736 59.4458 94.7248 59.8644 94.9414 60.3385C95.158 60.8127 95.2663 61.3219 95.2663 61.8663C95.2663 62.5512 95.1024 63.081 94.7746 63.4556C94.4526 63.8302 94.0341 64.0176 93.519 64.0176C92.7755 64.0176 92.1492 63.6429 91.6399 62.8937C91.1306 62.1444 90.7355 61.0673 90.4546 59.6624L91.2097 60.1278C91.7248 61.6966 92.4214 62.481 93.2995 62.481C93.6507 62.481 93.9434 62.3814 94.1775 62.1824C94.4117 61.9775 94.5287 61.7375 94.5287 61.4624C94.5287 61.3044 94.5199 61.2136 94.5024 61.1902C94.2507 61.6819 93.8907 61.9278 93.4224 61.9278C93.2292 61.9278 93.0185 61.8663 92.7902 61.7434C92.5619 61.6146 92.3716 61.439 92.2194 61.2166C92.1316 61.0702 92.0585 60.9063 91.9999 60.7248C91.9355 60.5083 91.877 60.1629 91.8243 59.6887C91.7131 59.6595 91.6048 59.5746 91.4994 59.4341C91.3941 59.2936 91.3414 59.1297 91.3414 58.9424C91.3414 58.7258 91.4087 58.5414 91.5433 58.3892C91.6838 58.237 91.8653 58.1609 92.0877 58.1609C92.3512 58.1609 92.556 58.2692 92.7024 58.4858C92.8546 58.6965 92.9394 58.9804 92.957 59.3375L93.036 60.6283C93.0419 60.7688 93.0419 60.839 93.036 60.839C93.1238 60.839 93.2526 60.6751 93.4224 60.3473C93.598 60.0136 93.7531 59.5922 93.8877 59.0829Z" fill="#066C44"/>
</svg>
