<svg width="488" height="324" viewBox="0 0 488 324" fill="none" xmlns="http://www.w3.org/2000/svg">
<path d="M231.795 204.995C222.215 211.338 245.909 211.813 241.568 223.589C242.044 235.665 227.824 237.942 215.31 238.117C203.789 245.286 221.601 242.189 227.653 248.162C240.399 246.474 244.688 261.198 225.008 261.736C226.314 269.262 246.497 270.498 235.665 281.555C221.171 276.878 213.584 289.266 221.75 297.504C228.294 303.02 218.713 317.431 211.976 311.148C208.016 298.248 201.831 311.416 196.028 314.677C190.13 322.809 189.526 324.607 182.112 317.935C168.417 311.223 161.26 322.213 172.067 308.502C170.881 298.739 156.494 302.175 152.861 294.858C143.38 297.91 138.502 304.351 132.158 304.632C127.635 297.685 113.997 298.935 115.597 301.374C109.6 297.926 102.19 299.983 95.7785 298.729C93.125 290.044 87.4588 303.327 83.088 291.329C77.4195 286.838 70.8115 283.288 69.1725 274.768C63.1643 286.601 54.6676 277.807 55.8695 264.994C46.1743 260.749 46.683 256.833 52.6116 249.046C56.5633 229.718 44.1455 228.328 49.3537 213.62C53.6208 205.733 47.8206 198.937 39.3086 195.222C28.5355 186.303 26.6098 193.764 13.9276 195.222C-3.15813 196.768 -0.434158 186.137 5.91541 179.273C16.9127 183.965 7.183 177.742 15.9605 171.873C16.4891 175.505 31.0366 165.56 35.4383 162.1C39.1517 154.773 42.3338 146.914 48.7412 142.281C54.9011 135.967 33.6167 132.318 48.7412 135.222C48.2596 130.322 46.1848 121.344 48.7412 115.404C42.3761 104.07 54.1816 117.59 55.8695 105.358C68.1821 107.648 62.3693 87.664 75.0757 88.7976C82.5804 82.4176 74.3262 74.9376 79.2176 75.7661C81.2921 71.2217 92.1932 68.845 88.9912 65.721C96.2106 55.9927 96.6487 60.0583 99.0363 45.9022C109.85 46.0187 101.949 37.9618 112.339 32.5992C116.766 20.0306 120.03 27.9289 118.855 9.52263C126.384 3.97639 127.102 -0.649472 128.9 5.99325C138.676 -0.439312 133.476 6.53121 149.868 5.99325C158.054 3.47972 176.295 23.5131 178.854 6.87726C193.68 -2.3252 191.723 26.623 205.189 13.1215C213.922 8.34736 216.105 -2.97648 235.053 2.4639C230.201 8.88615 243.632 10.1431 240.956 15.7669C254.383 18.3279 251.076 17.6422 268.446 19.2962C276.581 24.6006 269.649 31.9493 284.735 26.0835C288.749 29.6375 296.236 18.5909 300.684 12.7805C309.229 4.49959 321.72 18.5514 330.547 9.52263C346.26 8.28743 358.847 10.1779 354.508 28.9938C348.236 43.0686 359.678 30.0507 363.669 26.0835C372.741 20.8424 358.144 10.609 364.553 5.99325C369.931 -4.37279 378.53 17.3279 387.901 15.4259C391.054 29.1306 393.375 18.1669 397.675 12.7805C401.13 5.63222 412.681 17.2378 414.236 22.8256C427.355 20.1786 423.771 20.3521 430.525 15.7669C438.009 10.6567 442.327 17.2559 447.358 6.87726C453.818 1.56139 471.959 2.4268 467.448 8.63862C482.301 8.80531 481.83 27.4006 463.994 19.2962C465.342 19.1676 455.183 30.366 467.448 32.5992C460.888 38.257 455.277 44.8622 457.403 59.2052C448.901 64.2777 466.213 69.8106 467.448 75.7661C467.235 88.0147 481.77 85.5162 477.221 102.101C464.447 107.607 499.394 116.758 473.427 115.404C468.873 117.983 480.664 128.077 480.479 135.222C492.707 138.364 482.543 147.287 477.221 155.313C485.422 164.009 480.802 163.672 470.706 168.616C464.478 175.512 468.495 158.984 457.403 158.842C452.28 154.091 442.172 169.575 450.887 165.358C457.906 168.939 462.457 164.265 467.448 174.519C455.026 174.491 455.011 184.312 454.757 188.434C469.472 196.652 466.819 196.567 454.145 201.737C451.446 218.764 436.451 201.116 429.035 201.737C427.787 190.856 427.215 210.784 424.281 201.737C425.348 187.546 411.137 193.848 414.236 185.176C398.239 193.179 403.691 178.022 395.731 180.124C393.921 172.907 380.658 183.391 377.856 181.918C366.223 183.576 363.749 188.594 367.811 198.479C358.48 208.708 361.732 196.056 344.539 198.479C349.79 217.763 336.693 214.144 334.077 218.298C335.181 205.76 332.604 187.901 341.205 192.576C345.853 179.153 340.975 180.22 329.399 181.918C318.843 183.728 320.27 184.187 308.083 188.434C308.194 198.016 300.442 212.582 294.78 199.092C282.337 190.162 271.343 199.394 258.205 198.479C248.331 193.86 236.374 195.42 231.795 204.383V204.995Z" fill="#FFB900" stroke="#4A5153" stroke-width="2.03617"/>
</svg>
