<?xml version="1.0" encoding="UTF-8" standalone="no"?>
<svg
   xmlns:dc="http://purl.org/dc/elements/1.1/"
   xmlns:cc="http://creativecommons.org/ns#"
   xmlns:rdf="http://www.w3.org/1999/02/22-rdf-syntax-ns#"
   xmlns:svg="http://www.w3.org/2000/svg"
   xmlns="http://www.w3.org/2000/svg"
   xmlns:sodipodi="http://sodipodi.sourceforge.net/DTD/sodipodi-0.dtd"
   xmlns:inkscape="http://www.inkscape.org/namespaces/inkscape"
   version="1.1"
   id="Layer_1"
   x="0px"
   y="0px"
   viewBox="0 0 280 404.99999"
   xml:space="preserve"
   sodipodi:docname="সিরাজগঞ্জ-৩.svg"
   width="280"
   height="405"
   inkscape:version="1.0.1 (3bc2e813f5, 2020-09-07)"><metadata
   id="metadata3815"><rdf:RDF><cc:Work
       rdf:about=""><dc:format>image/svg+xml</dc:format><dc:type
         rdf:resource="http://purl.org/dc/dcmitype/StillImage" /><dc:title></dc:title></cc:Work></rdf:RDF></metadata><defs
   id="defs3813" /><sodipodi:namedview
   pagecolor="#ffffff"
   bordercolor="#666666"
   borderopacity="1"
   objecttolerance="10"
   gridtolerance="10"
   guidetolerance="10"
   inkscape:pageopacity="0"
   inkscape:pageshadow="2"
   inkscape:window-width="1600"
   inkscape:window-height="837"
   id="namedview3811"
   showgrid="false"
   inkscape:zoom="1.5779557"
   inkscape:cx="28.006715"
   inkscape:cy="205.046"
   inkscape:window-x="-8"
   inkscape:window-y="-8"
   inkscape:window-maximized="1"
   inkscape:current-layer="Layer_1"
   inkscape:document-rotation="0" />
<style
   type="text/css"
   id="style3776">
		.seat-banner .maps svg{width: 240px;}
	</style>
<a
   id="a3781"
   transform="translate(-10,-8)"
   style="fill:#d9dae0;fill-opacity:1;stroke:#4a5153;stroke-opacity:1;stroke-width:0.75;stroke-miterlimit:4;stroke-dasharray:none">
<path
   id="seat_62"
   style="fill:#d9dae0;fill-opacity:1;stroke:#4a5153;stroke-width:0.75;stroke-miterlimit:4;stroke-dasharray:none;stroke-opacity:1"
   d="m 262.3,40.5 c 1.02122,3.47878 1.71882,7.281179 4.9,8.6 -0.0939,5.635942 5.51776,-1.900251 4.9,4.9 -5.69621,1.313518 2.1465,3.758853 -1.3,5.874394 1.5804,2.028128 7.45867,2.506024 3.7,6.325606 -0.93164,1.714966 -8.05145,3.241763 -6.1,3.8 -0.40678,5.25989 1.04996,12.383295 -1.2,15.8 4.24505,4.049797 -0.29612,10.049426 -6.82076,7.3 -1.33485,1.926728 -1.61376,4.921949 -0.47924,8.6 2.6133,1.71149 2.48011,6.16949 5.67439,7.3 2.29259,2.73257 0.80892,9.53346 5.22561,9.8 -0.97794,3.41352 -5.01534,3.76759 -7.3,5.87439 -5.79808,0.17168 -2.37463,4.9549 -2.4,8.92319 -0.23097,4.98448 -7.31435,3.11655 -12.14394,3.50242 -2.18835,2.25513 -4.75357,4.1334 -8.65606,4.67439 -3.4875,0.84917 -11.71966,-2.69359 -6.1,1.2 -4.91511,-1.22426 -4.78117,7.77336 -7.4,3.92561 0.0578,4.69021 -8.26821,0.77747 -8.5,2.17439 2.80296,5.47598 -5.71945,1.9186 -2.4,6.1 4.83063,1.72008 0.68113,3.58758 -0.97439,4.02561 -5.45926,2.47985 -10.67184,-4.25885 -12.52561,-1.3 -3.37562,0.56451 -3.97396,-0.10673 -6,3.6 -4.70308,0.99619 -2.5217,3.93408 -6.2,0 -5.08073,3.04244 -0.88194,-3.21064 -3.7,-5.87439 -2.8124,-1.32947 -3.29624,-4.9875 -4.9,-7.52561 -4.59851,0.77623 -0.69152,-7.02348 0,-8.5 2.63666,-4.22245 1.18093,-2.80984 0,-7.3 -0.0978,-2.8282 7.42955,1.58031 6.1,-2.92318 -2.20801,-3.89364 -3.16932,-2.07989 -5.87439,-4.57682 -1.73971,-1.04774 0.0823,-5.74594 -0.22561,-9.24879 0.83021,-5.40226 -4.03315,-6.16576 -0.22561,-9.05121 0.90079,-4.05276 -2.30526,-5.78477 -4.67439,-7.3 -0.63076,2.09837 -2.49343,-0.33508 -4.57439,-2.4 0.29586,-3.35745 -5.90714,-1.359759 -7.62561,-1.525606 -0.96022,2.851892 -12.41249,2.219892 -7.52561,-2.174394 3.10599,2.544467 4.33355,-1.876577 2.72561,-4.348788 -1.30613,-4.133782 -1.70213,-7.491852 2.17439,-9.151212 1.96353,-5.254542 -7.21118,2.487619 -8.37439,-2.4 3.3753,-2.03771 0.248,-3.492964 3.47439,-6.1 3.64718,-2.394601 -3.44249,-3.909204 0.12561,-7.074394 2.64831,-0.240213 5.87794,-4.649262 3.92561,-6.325606 -1.38461,-2.218335 -4.70096,-7.175406 -0.35122,-8.6 3.46296,-4.46872 2.27578,5.38396 3.82561,6.848788 2.43833,0.26306 4.07687,-4.232675 8.79758,-3.148788 5.005,-3.296381 4.13502,2.691014 8.30242,3.374394 1.05395,2.430269 4.33627,5.052814 4.9,5.125606 1.35922,-5.42405 3.66098,2.023205 5.87439,-1.2 2.27148,-1.816422 4.93077,-3.513468 7.3,-6.1 3.63754,-1.180838 2.51191,-4.850625 0.32561,-7.3 -6.89678,-3.690978 4.90103,-1.48038 4.9,-4.9 1.07968,-4.005418 6.30964,-1.460128 3.7,-6.623181 -2.58786,-4.634475 -1.24447,-7.013931 2.17439,-6.876819 1.65635,-0.807724 -0.4914,-4.179281 2.62561,-6.1 5.04511,0.145108 0.25545,-9.544554 3.7,-11 2.3622,-3.3549392 8.4892,0.359024 10.67439,1.2 5.53901,-0.205674 10.3206,0.346072 12.52561,3.474394 5.58257,-0.545329 3.99701,5.189775 4.9,6.1 1.492,-2.406821 1.80263,-5.733451 2.4,-7.074394 3.96055,-0.422491 6.91613,5.200905 9.8,2.625606 4.1481,-0.960078 4.50022,-3.317036 7.2,-0.225606 2.95409,2.012573 2.90133,7.032005 2.6,12.3 -6.38848,2.534951 4.28666,0.602663 3.6,4.9 2.19554,-0.353342 -0.43129,0.440229 -1.2,4.574394 -1.30623,1.779826 -4.01453,1.536115 -7.3,1.425606 z" />

</a>
<a
   id="a3786"
   transform="translate(-10,-8)"
   style="fill:#d9dae0;fill-opacity:1;stroke:#4a5153;stroke-opacity:1;stroke-width:0.75;stroke-miterlimit:4;stroke-dasharray:none">
<path
   id="seat_63"
   style="fill:#d9dae0;fill-opacity:1;stroke:#4a5153;stroke-width:0.75;stroke-miterlimit:4;stroke-dasharray:none;stroke-opacity:1"
   d="m 204.9,156.6 c 1.09752,4.03165 10.17956,3.04384 12.2,1.3 2.31094,1.22005 -0.47043,-3.52971 -2.5,-4.9 5.55203,1.78363 2.55483,-5.15856 4.9,-3.7 6.32572,1.4399 6.03029,-2.96316 9.57439,-1.2 -2.84415,-4.38002 9.69385,-5.11076 2.62561,-6.1 2.46781,-2.39404 7.68321,1.45944 11.52318,-1.2 4.54144,1.08902 3.69436,-6.65552 7.85121,-2.6 -3.45819,1.3752 2.63124,4.69287 -0.97439,8.47439 -1.69332,-2.83109 -4.85299,-1.9849 -6.2,1.2 1.85067,1.96101 7.95841,1.71134 7.3,6.1 3.26472,-1.37069 4.83599,1.54685 3.8,3.6 -0.91651,3.17921 -4.14851,5.66525 -4.9,8.6 0.39217,3.57086 6.14915,-5.52434 4.23909,0.9416 -0.27119,4.06027 -6.92562,3.19417 -5.99525,6.11341 -1.18067,6.75036 0.58287,6.24659 5.45616,7.8706 -1.27646,3.6142 -4.44846,5.33285 -3.7,10.97197 -0.51776,5.56816 3.71364,6.38716 3.7,11.45121 0.61421,4.25246 3.14247,6.59087 3.6,11 2.79599,1.17882 1.38716,12.98247 -1.3,9.60243 -1.91795,2.41541 -7.32624,-1.69786 -7.2,2.27439 1.75206,2.55659 0.25767,3.9026 -0.97439,7.3 -4.32936,-0.74736 0.55571,-10.91792 -1.3,-11 -4.75012,-1.50702 -3.75979,-1.49423 -6.32561,-2.17439 0.64312,6.51692 -2.70913,-0.89707 -4.67439,2.17439 -4.36987,-0.228 -5.54182,2.74192 -7.52561,4.9 -3.42632,-1.78603 -3.33584,0.54686 -4.9,2.17439 0.97217,2.44046 0.42076,5.68672 2.4,8.72561 -2.48765,1.50381 -4.04586,3.93707 -7.07439,4.9 -0.98892,5.87716 -2.59636,1.95507 -4.9,0 -0.35341,6.59509 -3.87675,1.25683 -7.4,4.9 -1.71622,1.17211 -1.24361,3.31973 -0.22561,7.3 3.00778,1.5613 -3.92224,3.03189 -3.6,5.87439 3.33939,3.69176 -4.3687,1.59209 -2.4,0 -5.64853,2.52458 -3.95822,-4.90464 -7.17439,-5.87439 1.61347,-4.32934 -3.77733,-8.54622 -1.42561,-9.7 -1.06505,-5.68604 -2.15958,-3.33152 -2.5,-8.37439 -0.87379,-1.49381 0.46154,-2.53338 -2.4,-6 0.27666,-0.23958 -0.002,-5.93049 3.37439,-6.42561 2.30206,-6.46783 -1.47775,-1.93937 -4.57439,0 -2.77601,3.2052 2.31096,-5.95546 -2.5,-5.77439 0.25372,-2.10661 -5.00723,-2.21254 -3.82561,-1.52561 -3.82791,0.57928 2.00561,-3.03059 -2.27439,-4.67439 -0.4445,-0.31564 -6.21745,-1.87875 -1.2,-2.72561 3.34707,-0.95178 0.67553,-7.13676 -1.2,-5.12561 -1.08352,-1.44658 -3.09347,-7.34774 -0.22561,-4.67439 6.52998,1.66331 4.69111,-5.04222 10.02561,-4.57439 -4.76327,-1.76647 -4.07776,-2.31048 -4.9,-6.32561 4.75376,-0.53003 5.31297,-2.17003 2.4,-4.9 -2.24491,0.37751 -5.38834,2.93285 -4.9,-2.4 3.4081,0.68753 3.9448,-0.0327 7.4,2.4 -1.92107,4.06909 3.24847,0.6559 4.8,-0.97439 -0.0825,0.0257 -1.35012,-4.33558 1.3,-7.1744 3.50027,-2.47736 -4.57657,-2.87788 -2.5,-7.75121 -7.18005,-2.82814 5.60684,-1.67531 1.2,-4.67439 -5.7813,-1.37654 0.92544,-4.1499 2.27439,-1.52561 2.78848,2.31103 1.99503,-1.09428 6.2,-2.4 1.56781,-3.946 3.13815,-0.0777 5.02561,-3.7 0.83333,0 1.66667,0 2.5,0 z" />

</a>
<a
   id="a3793"
   transform="translate(-10,-8)"
   style="fill:#ac252a;fill-opacity:1;stroke:#4a5153;stroke-opacity:1;stroke-width:0.75;stroke-miterlimit:4;stroke-dasharray:none">
<path
   id="seat_64"
   style="fill:#ac252a;fill-opacity:1;stroke:#4a5153;stroke-width:0.75;stroke-miterlimit:4;stroke-dasharray:none;stroke-opacity:1"
   d="m 97.3,199.4 c -3.528694,2.33616 5.19877,2.51128 3.6,6.84879 0.17527,4.44811 -5.062458,5.28662 -9.671969,5.35121 -4.243599,2.64054 2.31704,1.49992 4.546363,3.7 4.694716,-0.62184 6.274596,4.80162 -0.974394,5 0.481361,2.77211 7.9154,3.22719 3.925606,7.3 -5.338722,-1.72297 -8.133195,2.84011 -5.125606,5.87439 2.410451,2.03203 -1.11848,7.33993 -3.6,5.02561 -1.458782,-4.7515 -3.736947,0.0987 -5.874394,1.3 -2.172486,2.99529 -2.394775,3.6577 -5.125606,1.2 -5.044411,-2.4723 -7.680672,1.5757 -3.7,-3.47439 -0.437044,-3.59629 -5.736122,-2.33055 -7.074394,-5.02561 -3.492273,1.12408 -5.288883,3.4967 -7.625606,3.6 -1.665954,-2.55867 -6.689514,-2.09853 -6.1,-1.2 -2.209071,-1.2701 -4.938428,-0.51245 -7.3,-0.97439 -0.977375,-3.19892 -3.064463,1.69378 -4.674394,-2.72561 -2.087905,-1.65396 -4.521881,-2.96186 -5.125606,-6.1 -2.213064,4.35861 -5.342711,1.11925 -4.9,-3.6 -3.571111,-1.56362 -3.383727,-3.00616 -1.2,-5.87439 1.455555,-7.11913 -3.118399,-7.63124 -1.2,-13.04879 1.571706,-2.90518 -0.56473,-5.40828 -3.7,-6.77682 -3.968145,-3.28488 -4.677455,-0.5369 -9.348788,0 -6.293344,0.56975 -5.290001,-3.34611 -2.951212,-5.87439 4.050736,1.7282 0.466902,-0.56398 3.7,-2.72561 0.194697,1.33763 5.553104,-2.32547 7.174394,-3.6 1.367819,-2.69885 2.539899,-5.59343 4.9,-7.3 2.268902,-2.3256 -5.570947,-3.66979 0,-2.6 -0.177422,-1.80502 -0.941627,-5.11192 0,-7.3 -2.344525,-4.1744 2.003874,0.80526 2.625606,-3.7 4.535201,0.84323 2.39414,-6.51753 7.074394,-6.1 2.764261,-2.35001 -0.276069,-5.10515 1.525606,-4.8 0.764106,-1.67386 4.779402,-2.54932 3.6,-3.7 2.659186,-3.5833 2.820523,-2.08577 3.7,-7.3 3.983168,0.0429 1.072779,-2.92477 4.9,-4.9 1.630482,-4.6295 2.832706,-1.72028 2.4,-8.5 2.773201,-2.04289 3.037611,-3.74677 3.7,-1.3 3.600835,-2.36936 1.685569,0.19815 7.723181,0 3.015237,-0.92583 9.734246,6.45321 10.676819,0.32561 5.460985,-3.38962 4.73993,7.27311 9.7,2.3 3.216691,-1.75851 4.020902,-5.92951 11,-3.92561 -1.78702,2.36556 3.15998,2.82856 2.17439,4.9 4.94569,0.94332 3.72775,0.69075 10.12561,1.3 2.99662,1.95379 0.44325,4.6606 6,2.5 1.47836,1.30908 4.23628,-2.75982 5.87439,-4.9 3.14758,-3.05018 7.74845,2.12564 11,-1.2 5.7875,-0.45497 10.42372,0.24134 8.82561,7.17197 -2.31017,5.18428 1.90434,0.38931 3.37439,-1.07197 3.34135,-1.93049 -2.03499,-5.69985 0.32561,-7.4 1.9808,-3.81821 5.14822,4.17499 8.6,3.47439 1.16136,5.04799 2.01604,1.00962 3.6,-0.97439 1.2728,-2.63299 5.52714,1.6418 6.1,3.7 4.83247,-0.97501 3.51217,-0.91109 6,-2.6 2.75655,-1.88227 4.34699,0.54847 6.2,-3.27439 2.37966,-1.95804 9.06178,-1.63927 7.4,0.64878 5.47112,0.0614 5.29763,6.91075 -1.27197,3.92561 0.49636,-0.0474 -3.24547,4.07741 1.27197,4.9 -2.41604,2.08396 -4.48308,4.51692 -3.7,9.8 -3.13141,1.86839 3.24505,3.90637 3.7,6.1 -0.0783,4.51164 5.27533,3.59134 3.6,9.7 -4.70536,2.02817 8.16716,5.3988 -1.39758,4.9 -1.67732,0.95005 2.66563,4.66823 2.59758,7.3 4.50379,1.15708 0.76027,4.44375 -1.2,7.4 3.02072,3.20327 1.31892,3.07908 -2.4,4.9 -2.29385,2.54006 -0.81427,-3.54769 -4.9,-3.6 -1.88687,-1.74984 -5.60998,3.95339 -2.4,2.4 2.5855,1.31909 4.26163,-0.40265 6.1,3.37439 -4.57533,-0.0103 -4.58111,3.6074 -4.67439,5.12561 5.41987,3.027 4.44281,2.99569 -0.22561,4.9 -0.99422,6.2717 -6.51742,-0.22881 -9.24879,0 -0.45983,-4.00784 -0.6704,3.33233 -1.75121,0 0.39304,-5.2272 -4.8414,-2.9058 -3.7,-6.1 -5.89226,2.94764 -3.88406,-2.63539 -6.81599,-1.86091 -0.66659,-2.65851 -5.55202,1.20323 -6.58401,0.66091 -4.28506,0.6107 -5.19607,2.45873 -3.7,6.1 -3.43691,3.7677 -2.23918,-0.89262 -8.57197,0 1.93405,7.10298 -2.88982,5.77004 -3.85364,7.3 0.40678,-4.61844 -0.54244,-11.19632 2.62561,-9.47439 1.71216,-4.94416 -0.0847,-4.55129 -4.34879,-3.92561 -3.88787,0.66651 -3.3624,0.83557 -7.85121,2.4 0.0406,3.52928 -2.81458,8.89455 -4.9,3.92561 -4.58319,-3.28931 -8.63283,0.11137 -13.47197,-0.22561 -3.6371,-1.70137 -8.041374,-1.12673 -9.72803,2.17439 z" />
<g
   id="g3791"
   style="fill:#ac252a;fill-opacity:1;stroke:#4a5153;stroke-opacity:1;stroke-width:0.75;stroke-miterlimit:4;stroke-dasharray:none">

</g>
</a>
<a
   id="a3798"
   transform="translate(-10,-8)"
   style="fill:#d9dae0;fill-opacity:1;stroke:#4a5153;stroke-opacity:1;stroke-width:0.75;stroke-miterlimit:4;stroke-dasharray:none">
<path
   id="seat_65"
   style="fill:#d9dae0;fill-opacity:1;stroke:#4a5153;stroke-width:0.75;stroke-miterlimit:4;stroke-dasharray:none;stroke-opacity:1"
   d="m 123,199.4 c 2.19895,-2.19251 1.91769,-6.86524 5.87439,-7.3 0.50966,-1.90355 5.52442,0.75346 7.52561,-2.4 3.49641,-0.0839 1.02901,7.34182 0,4.8 -2.19442,0.16647 -1.39766,13.87475 -1.2,8.6 6.20323,2.20574 1.69178,-11.12684 8.5,-5.12561 1.30611,2.61083 5.34834,-2.30991 2.5,-4.44878 1.69553,-1.6436 5.71023,-4.28487 7.07439,-2.62561 3.09186,-2.8716 4.70418,-1.19488 6.42561,-0.22561 -0.47372,3.4424 5.64096,1.54916 5.77439,2.62561 1.44919,0.62656 4.68437,8.02583 2.95122,4.9 1.04283,-1.63165 2.71036,-1.00987 4.67439,2.17439 -1.19718,-2.95102 0.46293,5.81802 1.2,4.15122 2.74759,0.50362 4.13645,4.31885 1.2,5.87439 -5.23209,1.79093 1.61241,1.18431 1.2,3.7 4.00919,0.34111 -0.5112,5.19571 1.3,3.7 2.22426,-0.59905 4.44142,-0.81922 4.8,2.5 6.18607,-1.10465 -1.88976,9.0348 3.47439,4.8 1.83985,-4.42781 7.08889,-4.33708 2.95122,0 -3.01046,1.95961 -2.17223,5.52047 -2.72561,7.4 3.48273,2.94437 1.32859,3.12032 2.4,5.77439 0.28929,4.18738 1.85141,2.10796 2.5,7.62561 -1.54845,0.63174 1.88846,6.95057 2.17439,9.7 2.96715,0.92822 -0.48026,11.62181 3.92561,7.4 1.73323,3.04584 -0.02,2.43899 -1.1,4.44879 -2.72995,1.9984 2.73817,7.73603 -2.6,9.05121 1.1957,4.19419 -4.1082,-4.70042 -3.6,1.2 -3.8621,1.51843 -3.729,5.06428 -2.5,9.02318 -0.47168,5.98447 2.91629,8.64515 -3.14879,9.27682 -3.96049,1.055 -1.49982,-4.50416 -3.7,-4.9 -3.91152,-2.01593 -4.38089,-0.57494 -4.15121,-8.02076 4.57293,-1.66365 0.56897,-7.06249 0,-0.47924 -0.97386,3.90292 -5.94268,3.4072 -8.5,3.6 -2.55132,-3.07283 -6.50086,2.37685 -7.3,0.97439 -3.76598,0.94757 -8.27826,-2.35217 -6.1,1.42561 3.19756,3.45934 -5.02357,1.60638 -2.5,3.7 -0.82608,-0.13161 -5.5385,2.40817 -6.1,1.2 -0.84793,-2.2302 -4.27701,3.01423 -4.9,5 -3.97114,1.01389 -1.84607,5.29694 0,4.8 0.0483,3.42387 4.91211,7.10746 0,8.6 -2.59363,4.77943 -4.77644,0.33645 -5.64879,0 -0.78085,-2.39329 -1.77343,-10.62048 -5.35121,-6.2 -4.74843,-1.80216 -4.85209,-0.24565 -3.7,4.44879 -0.0784,2.64585 -6.69493,-0.80139 -8.5,2.85121 -0.42865,-1.43952 -0.50049,-5.06838 -2.4,-8.27439 -4.38511,-4.86927 3.86748,-3.24724 2.4,-1.55122 2.9316,1.31929 5.78766,-4.75455 3.6,-4.67439 -0.81539,-4.65816 -4.14973,-2.91706 -2.4,-2.5 -3.63329,3.26419 -5.50582,0.10315 -9.34879,2.5 -7.14961,-3.94732 3.76162,0.27601 1.94879,-6.2 2.13185,-2.27984 4.50272,-4.98295 2.6,-8.04879 -1.92479,-2.78121 0.017,-3.99451 -5,-5.35121 -0.36917,-1.71985 -4.65246,2.53418 -6.1,3.7 0.7777,4.52515 -5.3814,5.39332 -6.1,4.8 -3.826797,-1.06834 1.629385,-9.57602 1.2,-7.3 0.83071,-4.62242 -3.529242,-7.09748 -2.4,-8.5 -2.428548,-3.18745 1.135359,-4.73055 -2.5,-7.07439 0.239767,-0.23137 1.560972,-5.45495 0,-5.22561 1.905214,-0.83071 5.204221,-1.62963 1.2,-4.67439 1.177851,-5.38769 -0.09489,-1.06985 -2.4,-5.12561 -1.810366,-3.68491 -5.222675,3.49203 -7.3,0 0.08845,-1.10423 -1.138106,-8.10272 -0.225606,-9.7 1.095909,-2.23977 4.063714,-5.46689 5.125606,-1.3 2.2347,2.61242 6.076806,-3.11454 3.6,-4.57439 -3.092892,-3.76244 0.11217,-8.05907 6.071969,-6.32561 1.513721,-5.3861 -3.86281,-4.11851 -4.871969,-7.07439 6.56692,-0.30038 6.02253,-5.53994 1.525606,-5.22561 -2.483533,-2.00047 -9.345767,-1.10419 -5.125606,-3.7 4.766026,0.11342 9.97427,-0.96697 9.7,-5.54879 1.40861,-4.23221 -6.793382,-4.07623 -3.825606,-6.65121 1.177796,-2.58101 5.822916,-4.94362 8.499996,-2.4 5.67486,0.9385 9.3197,-3.28281 14.7,0 0.47985,0.9227 1.28784,2.4878 2.72561,2.4 z" />

</a>
<a
   id="a3803"
   transform="translate(-10,-8)"
   style="fill:#d9dae0;fill-opacity:1;stroke:#4a5153;stroke-opacity:1;stroke-width:0.75;stroke-miterlimit:4;stroke-dasharray:none">
<path
   id="seat_66"
   style="fill:#d9dae0;fill-opacity:1;stroke:#4a5153;stroke-width:0.75;stroke-miterlimit:4;stroke-dasharray:none;stroke-opacity:1"
   d="m 270.8,277.7 c 0.19145,5.38292 -1.90298,8.47995 -3.37439,12.2 0.74197,1.87374 -1.11892,9.83979 0.74878,9.7 -0.0328,6.43137 0.93996,6.3615 1.42561,10.32318 0.93836,4.03684 2.7866,7.16381 3.7,11.22561 2.72632,3.21612 0.83455,9.75458 -2.5,7.85121 -5.27489,-0.90399 -5.91347,3.45089 -2.4,6.1 0.81729,1.1663 7.44348,-1.4068 9.8,1.2 -1.64872,6.00685 3.35456,5.36171 4.8,8.27439 6.36267,1.09108 -1.69952,4.62899 0,9.02319 -0.44167,6.03393 0.33369,10.85085 2.6,14.17681 1.5565,2.75033 1.90903,10.82598 0,13.5 -0.54816,3.2487 -4.08932,5.58684 -6.2,7.52561 -2.63238,1.70805 -4.58076,3.20505 -6.1,7.07439 -3.70277,1.16007 -5.98537,1.97293 -6.1,4.02561 -0.97627,3.4152 -5.22606,3.55687 -7.3,5.87439 -4.78595,1.94652 -6.27155,-0.0169 -12.3,0.22561 -3.17561,1.54066 -5.95691,3.47561 -9.24879,4.9 -5.04278,-0.6315 -5.83819,-4.15871 -9.8,-4.9 -1.1719,-5.1178 -2.16247,-6.2213 -1.4256,-7.4 -0.37448,-2.9412 -7.68153,2.90116 -7.62561,0 0.27201,-3.98753 -2.4319,-11.70318 0,-10.77439 0.55918,-1.84727 1.30992,-2.66959 2.5,-6.32561 -0.37019,-0.58862 3.58548,-3.86372 7.72318,-3.6 5.35914,0.43694 1.72585,-6.5014 3.17682,-7.3 1.1765,4.23278 2.31099,5.45457 5.87439,2.4 -1.10391,-7.15005 5.83632,-3.07281 7.4,-4.9 0.46059,2.29478 3.83206,-5.74397 1.75122,-3.6 1.00015,-3.17959 6.19181,-1.38723 8.17439,-2.27439 4.6239,-1.62611 0.75277,-4.02903 -2.07439,-5.12561 -3.16278,-0.28692 -6.55351,-5.53078 -7.62561,-1.52561 -1.10694,2.18182 1.1488,-3.70608 -2.17439,-4.57439 -0.70809,-1.95446 -6.42971,1.70833 -7.62561,-2.5 -3.16073,-1.53773 -3.87379,-4.17904 -2.4,-7.3 1.99295,-2.76851 3.23584,-2.19551 6.1,-4.9 -3.85063,-5.91272 6.55196,-2.94404 1.42561,-6.1 2.95518,-3.05184 -3.61228,-4.69261 -3.92561,-7.3 -1.09821,-2.8007 0.19236,-4.14588 -3.6,-5.97439 3.11226,-1.31911 -2.8621,-5.01645 -1.3,-5.02561 1.42765,-4.72502 3.31834,0.81211 -1.2,-4.67439 -1.34654,-1.22958 0.70469,-5.68095 -2.4,-7.62561 -4.56361,3.03967 -1.8923,2.19021 -3.7,-1.1 -0.36767,3.55554 -6.49368,2.37025 -6.1,-1.3 -4.90252,-2.33332 -2.37225,2.46269 -7.07439,0 -7.97886,-1.59243 -4.03678,1.67918 -7.52561,5 -2.10679,1.83468 1.26699,6.72008 -1.94879,6 -1.75083,-3.44064 0.58695,-10.96988 -5.87439,-9.7 -3.42274,-1.73631 -2.24888,-7.5857 -8.17682,-3.8 -2.37784,-2.70509 -0.24883,-9.91703 -2.4,-12.84879 1.70184,-1.13733 3.52811,-7.40602 4.9,-5.67682 3.37001,2.70784 1.27213,0.30973 5,-0.97439 -0.10151,-4.60777 -2.50265,-9.5881 1.94879,-8.5 -0.0774,-2.7316 -0.38866,-3.73472 -3.34879,-2.5 -1.29952,-5.56701 6.00672,-2.60841 5.97439,-1.2 2.95125,2.41164 1.4089,-2.13791 2.62561,-4.44879 3.8535,-0.17314 4.10429,-3.70601 1.3,-5.25121 -0.70695,-5.68937 1.58857,-3.34368 4.9,-7.17439 3.02026,4.66428 3.39708,-5.38905 6.1,-1.52561 1.25733,6.6397 1.89522,-3.83435 5.77439,-2.4 0.43726,-1.8727 6.27865,-4.18839 2.72561,-6.1 -1.57022,-2.89658 -0.81172,-6.44949 0,-8.5 -0.77829,-1.19453 4.86211,1.46191 4.9,-2.17439 1.94738,-2.19449 5.72747,-2.55627 8.5,-3.92561 2.25405,4.78239 2.38527,-1.11534 3.7,-1.2 -0.24978,1.52515 7.67488,1.8015 4.9,4.47439 -1.67852,4.39115 2.18628,13.99987 2.5,5.22561 1.84056,0.28883 -0.44997,-4.30225 1.2,-5.87439 0.56745,2.62069 8.90761,-1.21841 6,0.97439 -1.63849,3.06843 -5.00191,4.41192 -3.6,10.52076 1.9407,1.91904 4.09748,3.62201 6.2,5.37924 2.4262,2.35593 4.06079,5.50345 3.6,10.74636 -0.13429,5.14919 0.0384,10.25304 3.7,12.45364 4.39746,1.96734 3.7831,6.14586 4.8,10.32318 0,1.05894 0,2.11788 0,3.17682 z" />

</a>
<a
   id="a3808"
   transform="translate(-10,-8)"
   style="fill:#d9dae0;fill-opacity:1;stroke:#4a5153;stroke-opacity:1;stroke-width:0.75;stroke-miterlimit:4;stroke-dasharray:none">
<path
   id="seat_67"
   style="fill:#d9dae0;fill-opacity:1;stroke:#4a5153;stroke-width:0.75;stroke-miterlimit:4;stroke-dasharray:none;stroke-opacity:1"
   d="m 169.4,285 c 2.48681,3.79208 7.00975,-0.84211 7.3,-3.37439 3.05263,-5.45291 2.05161,0.31099 0,2.92318 0.0261,6.68126 0.44871,4.5003 4.67439,6.55121 0.76198,1.25019 -0.28793,5.82063 3.7,4.9 2.62996,-0.55005 8.02967,-3.9 9.92561,-1.3 -1.04491,6.33637 8.34833,2.2346 7.4,8.47439 -0.44662,6.56906 2.4954,6.4051 2.5,1.32561 -3.34511,-0.70679 5.13722,-5.15176 1.32561,-7.3 4.51582,-1.46867 9.82241,3.14293 10.64878,-1.2 2.36047,1.59766 3.35252,4.56374 7.0744,4.8 3.3874,-4.48126 1.65572,0.24715 2.85121,1.4 0.81409,-4.68924 5.42352,-1.0221 4.9,2.92318 -4.53446,1.38368 6.65025,6.81156 2.5,4.60243 -1.28884,0.15994 -2.72704,4.71504 1.2,4.67439 -3.4806,4.2372 3.75274,3.48183 1.42561,6.1 -0.0561,2.97699 3.27233,4.01649 4.67439,7.3 0.6995,1.8319 3.80048,4.64274 -0.97439,4.9 0.11401,-0.60702 -1.85863,8.42658 -4.15122,6 -1.88494,3.63447 -4.18402,4.67942 -2.17439,8.7 2.45225,0.82096 5.5174,5.51355 8.5,2.62561 2.04555,-0.0303 5.16441,3.53724 2.5,5.87439 3.00842,0.82516 1.29325,-4.53342 4.9,0 3.50502,0.99498 7.08276,1.91724 8.6,4.9 -2.53976,3.8126 -5.94776,-0.23106 -8.6,2.4 -3.80365,2.39223 -0.32864,-0.25296 -2.5,4.9 -2.25519,1.68086 -2.98591,-0.60609 -8.01599,0.66091 0.46465,3.76084 -4.13058,7.7825 -5.38401,5.43909 -1.40806,-5.42919 -2.15277,-2.77297 -1.3,2.5 -2.94362,1.81451 -7.97008,1.54618 -10.67439,3.6 2.31202,1.45406 -3.77898,4.7917 -1.75122,6.1 0.12455,2.46885 -4.3754,-2.56869 -6.84878,-2.4 -2.20722,-1.89278 -4.83166,-3.36834 -6.42561,-5.87439 -3.19479,-1.27188 -6.6862,-2.24714 -8.5,-4.9 -3.96196,0.73581 -7.55822,1.29922 -8.5,-2.62561 -2.90903,-1.61314 -4.05818,-4.6045 -6.1,-2.82561 -3.12777,0.46677 -5.10504,-3.04749 -8.6,-3.27439 -0.85768,-3.78339 -5.23812,-4.044 -9.02318,-4.9 -4.41021,1.38938 -7.04578,1.06478 -9.05121,-2.5 0.11368,-2.97939 5.52852,2.45176 4.57439,-3.7 -3.23673,-1.73833 -7.29274,-5.26046 -8.17439,0 -0.24692,-6.45276 -2.41445,-1.10142 -4.02561,-3.7 -4.81634,-0.88126 -4.76799,-2.48034 -3.6,-6.84879 -1.96276,-1.43575 -5.52308,-4.75282 -3.7,-6.3256 6.38147,-0.58816 -2.5711,-4.94085 1.2,-7.52561 2.70374,1.98424 6.13134,2.57392 3.7,-1.2 2.40998,-1.19241 -7.32668,-0.79082 -7.3,-3.7 -3.20001,-3.11492 1.05246,-5.0756 3.6,-6.2 0.20441,-6.59086 -7.35009,-0.0833 -3.6,-4.47439 1.78555,-2.43636 5.19685,-3.23613 2.4,-7.1744 -1.99211,-4.08488 -2.8575,-2.07737 -3.7,-6.65121 3.26918,-0.72228 3.32498,-4.65795 6.1,-5.87439 1.4333,-1.32219 2.01721,1.42405 5.87439,-1.42561 4.26279,3.04777 -1.46997,-3.88127 4.44879,-1.2 1.7434,-2.09885 -3.11804,-6.15047 0.77682,-3.7 5.25922,-1.06525 6.00183,1.41822 8.5,-2.17439 3.07456,-1.97113 2.11325,3.43292 4.9,-0.22561 z" />

</a>
<text
   xml:space="preserve"
   style="font-size:20px;line-height:1.25;font-family:'Lohit Bengali';-inkscape-font-specification:'Lohit Bengali, Normal';text-align:center;text-anchor:middle"
   x="212.3"
   y="82.385078"
   id="text4440"><tspan
     sodipodi:role="line"
     id="tspan4438"
     x="212.3"
     y="82.385078">৬২</tspan></text><text
   xml:space="preserve"
   style="font-size:20px;line-height:1.25;font-family:'Lohit Bengali';-inkscape-font-specification:'Lohit Bengali, Normal';text-align:center;text-anchor:middle"
   x="209.13135"
   y="194.55553"
   id="text4444"><tspan
     sodipodi:role="line"
     id="tspan4442"
     x="209.13135"
     y="194.55553">৬৩</tspan></text><text
   xml:space="preserve"
   style="font-size:20px;line-height:1.25;font-family:'Lohit Bengali';-inkscape-font-specification:'Lohit Bengali, Normal';text-align:center;text-anchor:middle"
   x="81.117615"
   y="169.84"
   id="text4448"><tspan
     sodipodi:role="line"
     id="tspan4446"
     x="81.117615"
     y="169.84">৬৪</tspan></text><text
   xml:space="preserve"
   style="font-size:20px;line-height:1.25;font-family:'Lohit Bengali';-inkscape-font-specification:'Lohit Bengali, Normal';text-align:center;text-anchor:middle"
   x="132.44984"
   y="245.88777"
   id="text4452"><tspan
     sodipodi:role="line"
     id="tspan4450"
     x="132.44984"
     y="245.88777">৬৫</tspan></text><text
   xml:space="preserve"
   style="font-size:20px;line-height:1.25;font-family:'Lohit Bengali';-inkscape-font-specification:'Lohit Bengali, Normal';text-align:center;text-anchor:middle"
   x="225.60835"
   y="267.43463"
   id="text4456"><tspan
     sodipodi:role="line"
     id="tspan4454"
     x="225.60835"
     y="267.43463">৬৬</tspan></text><text
   xml:space="preserve"
   style="font-size:20px;line-height:1.25;font-family:'Lohit Bengali';-inkscape-font-specification:'Lohit Bengali, Normal';text-align:center;text-anchor:middle"
   x="179.97971"
   y="332.07523"
   id="text4460"><tspan
     sodipodi:role="line"
     id="tspan4458"
     x="179.97971"
     y="332.07523">৬৭</tspan></text></svg>
